<?xml version="1.0" encoding="UTF-8" standalone="no"?>
<!-- Created with Inkscape (http://www.inkscape.org/) -->

<svg
   xmlns:dc="http://purl.org/dc/elements/1.1/"
   xmlns:cc="http://creativecommons.org/ns#"
   xmlns:rdf="http://www.w3.org/1999/02/22-rdf-syntax-ns#"
   xmlns:svg="http://www.w3.org/2000/svg"
   xmlns="http://www.w3.org/2000/svg"
   xmlns:xlink="http://www.w3.org/1999/xlink"
   xmlns:sodipodi="http://sodipodi.sourceforge.net/DTD/sodipodi-0.dtd"
   xmlns:inkscape="http://www.inkscape.org/namespaces/inkscape"
   width="96"
   height="96"
   id="svg18157"
   version="1.1"
   inkscape:version="0.92.1 r15371"
   sodipodi:docname="folder.svg"
   inkscape:export-filename="/home/sergio/Pictures/elementary-xfce-new/96/folder_.png"
   inkscape:export-xdpi="90"
   inkscape:export-ydpi="90">
  <defs
     id="defs18159">
    <linearGradient
       inkscape:collect="always"
       xlink:href="#linearGradient6129-963-697-142-998-580-273-44-2-2"
       id="linearGradient12487"
       gradientUnits="userSpaceOnUse"
       gradientTransform="matrix(2.2651514,0,0,2.0354763,-6.3636329,-48.531036)"
       x1="22.934725"
       y1="49.629246"
       x2="22.809399"
       y2="36.657963" />
    <linearGradient
       id="linearGradient6129-963-697-142-998-580-273-44-2-2">
      <stop
         id="stop2661-01-6-2"
         style="stop-color:#0a0a0a;stop-opacity:0.498"
         offset="0" />
      <stop
         id="stop2663-64-5-5"
         style="stop-color:#0a0a0a;stop-opacity:0"
         offset="1" />
    </linearGradient>
    <linearGradient
       inkscape:collect="always"
       xlink:href="#linearGradient4632-0-6-4"
       id="linearGradient12481"
       gradientUnits="userSpaceOnUse"
       gradientTransform="matrix(1.9997551,0,0,2.0714256,0.0113782,-51.678507)"
       x1="35.792694"
       y1="17.118193"
       x2="35.792694"
       y2="43.761127" />
    <linearGradient
       id="linearGradient4632-0-6-4">
      <stop
         style="stop-color:#b4cee1;stop-opacity:1;"
         offset="0"
         id="stop4634-4-4-7" />
      <stop
         style="stop-color:#5d9fcd;stop-opacity:1;"
         offset="1"
         id="stop4636-3-1-5" />
    </linearGradient>
    <radialGradient
       inkscape:collect="always"
       xlink:href="#linearGradient5060-820-91-9-0"
       id="radialGradient12475"
       gradientUnits="userSpaceOnUse"
       gradientTransform="matrix(-0.06159637,0,0,0.04973261,46.790195,15.21972)"
       cx="605.71429"
       cy="486.64789"
       fx="605.71429"
       fy="486.64789"
       r="117.14286" />
    <linearGradient
       id="linearGradient5060-820-91-9-0">
      <stop
         id="stop2681-778-5-1"
         style="stop-color:#000000;stop-opacity:1"
         offset="0" />
      <stop
         id="stop2683-2-86-2"
         style="stop-color:#000000;stop-opacity:0"
         offset="1" />
    </linearGradient>
    <radialGradient
       inkscape:collect="always"
       xlink:href="#linearGradient5060-179-37-4-0"
       id="radialGradient12471"
       gradientUnits="userSpaceOnUse"
       gradientTransform="matrix(0.06159637,0,0,0.04973261,49.231778,15.21972)"
       cx="605.71429"
       cy="486.64789"
       fx="605.71429"
       fy="486.64789"
       r="117.14286" />
    <linearGradient
       id="linearGradient5060-179-37-4-0">
      <stop
         id="stop2675-91-9-2"
         style="stop-color:#000000;stop-opacity:1"
         offset="0" />
      <stop
         id="stop2677-09-0-9"
         style="stop-color:#000000;stop-opacity:0"
         offset="1" />
    </linearGradient>
    <linearGradient
       inkscape:collect="always"
       xlink:href="#linearGradient5048-585-73-1-5"
       id="linearGradient12467"
       gradientUnits="userSpaceOnUse"
       gradientTransform="matrix(0.15881504,0,0,0.04973261,-9.3893001,15.21972)"
       x1="302.85715"
       y1="366.64789"
       x2="302.85715"
       y2="609.50507" />
    <linearGradient
       id="linearGradient5048-585-73-1-5">
      <stop
         id="stop2667-99-4-6"
         style="stop-color:#000000;stop-opacity:0"
         offset="0" />
      <stop
         id="stop2669-5-9-4"
         style="stop-color:#000000;stop-opacity:1"
         offset="0.5" />
      <stop
         id="stop2671-56-4-2"
         style="stop-color:#000000;stop-opacity:0"
         offset="1" />
    </linearGradient>
    <linearGradient
       inkscape:collect="always"
       xlink:href="#linearGradient4507-0-4-7"
       id="linearGradient12463"
       gradientUnits="userSpaceOnUse"
       gradientTransform="matrix(1.8490408,0,0,2.2218594,4.7135631,-39.207438)"
       x1="21.37039"
       y1="4.2476678"
       x2="21.37039"
       y2="34.143417" />
    <linearGradient
       id="linearGradient4507-0-4-7">
      <stop
         id="stop4509-35-6-1"
         style="stop-color:#ffffff;stop-opacity:1"
         offset="0" />
      <stop
         id="stop4511-46-3-8"
         style="stop-color:#ffffff;stop-opacity:0.23529412"
         offset="0.07395859" />
      <stop
         id="stop4513-15-5-9"
         style="stop-color:#ffffff;stop-opacity:0.15686275"
         offset="0.99001008" />
      <stop
         id="stop4515-1-1-8"
         style="stop-color:#ffffff;stop-opacity:0.39215687"
         offset="1" />
    </linearGradient>
    <linearGradient
       inkscape:collect="always"
       xlink:href="#linearGradient4646-7-4-3"
       id="linearGradient12459"
       gradientUnits="userSpaceOnUse"
       gradientTransform="matrix(2.047619,0,0,2.0999999,-105.45041,-49.899998)"
       x1="62.988873"
       y1="13"
       x2="62.988873"
       y2="16" />
    <linearGradient
       id="linearGradient4646-7-4-3">
      <stop
         offset="0"
         style="stop-color:#f9f9f9;stop-opacity:1"
         id="stop4648-8-0-3" />
      <stop
         offset="1"
         style="stop-color:#d8d8d8;stop-opacity:1"
         id="stop4650-1-7-3" />
    </linearGradient>
    <linearGradient
       id="linearGradient3104-8-8-97-4-6-11-5-5">
      <stop
         offset="0"
         style="stop-color:#000000;stop-opacity:0.32173914"
         id="stop3106-5-4-3-5-0-2-1-0" />
      <stop
         offset="1"
         style="stop-color:#000000;stop-opacity:0.27826086"
         id="stop3108-4-3-7-8-2-0-7-9" />
    </linearGradient>
    <linearGradient
       y2="3.6336823"
       x2="-51.786404"
       y1="53.514328"
       x1="-51.786404"
       gradientTransform="matrix(1.6337756,0,0,1.7432828,215.6808,-49.418757)"
       gradientUnits="userSpaceOnUse"
       id="linearGradient18155"
       xlink:href="#linearGradient3104-8-8-97-4-6-11-5-5"
       inkscape:collect="always" />
    <linearGradient
       inkscape:collect="always"
       xlink:href="#linearGradient8272"
       id="linearGradient5891"
       gradientUnits="userSpaceOnUse"
       gradientTransform="matrix(1.9636254,0,0,2.0287677,-104.69613,-50.62191)"
       x1="97.538795"
       y1="16.962049"
       x2="97.538795"
       y2="44.260689" />
    <linearGradient
       id="linearGradient8272">
      <stop
         offset="0"
         style="stop-color:#ffffff;stop-opacity:1"
         id="stop8274" />
      <stop
         offset="0.0221225"
         style="stop-color:#ffffff;stop-opacity:0.23529412"
         id="stop8276" />
      <stop
         offset="0.97909725"
         style="stop-color:#ffffff;stop-opacity:0.15686275"
         id="stop8278" />
      <stop
         offset="1"
         style="stop-color:#ffffff;stop-opacity:0.39215687"
         id="stop8280" />
    </linearGradient>
  </defs>
  <sodipodi:namedview
     id="base"
     pagecolor="#ffffff"
     bordercolor="#666666"
     borderopacity="1.0"
     inkscape:pageopacity="0.0"
     inkscape:pageshadow="2"
     inkscape:zoom="2"
     inkscape:cx="5.4502343"
     inkscape:cy="42.771367"
     inkscape:current-layer="layer1"
     showgrid="true"
     inkscape:grid-bbox="true"
     inkscape:document-units="px"
     inkscape:window-width="1382"
     inkscape:window-height="563"
     inkscape:window-x="275"
     inkscape:window-y="361"
     inkscape:window-maximized="0"
     showguides="false"
     inkscape:snap-global="false">
    <inkscape:grid
       type="xygrid"
       id="grid4112" />
  </sodipodi:namedview>
  <metadata
     id="metadata18162">
    <rdf:RDF>
      <cc:Work
         rdf:about="">
        <dc:format>image/svg+xml</dc:format>
        <dc:type
           rdf:resource="http://purl.org/dc/dcmitype/StillImage" />
        <dc:title />
      </cc:Work>
    </rdf:RDF>
  </metadata>
  <g
     id="layer1"
     inkscape:label="Layer 1"
     inkscape:groupmode="layer"
     transform="translate(0,48)">
    <g
       id="g4111"
       transform="translate(0,-1.0000015)">
      <path
         sodipodi:nodetypes="sscsssssssscsss"
         id="rect4251-0-0-61"
         d="m 10.5,-31.5 c -1.1208845,0 -2.0128829,0.932618 -2,2.09091 l 0.046511,3.909091 -2.0232557,0 c -1.1208833,0 -2.0232553,0.841636 -2.0232553,2 l 0,12.909091 C 4.5,-9.4325438 5.402372,-8.5 6.5232558,-8.5 l 82.9534852,0 c 1.120884,0 2.023257,-0.9325438 2.023257,-2.090908 l 0,-12.909091 c 0,-1.158364 -0.879114,-2 -1.999998,-2 l -46.988371,0 -0.01163,-4 c -0.0034,-1.158359 -0.879116,-2.000001 -2,-2.000001 z"
         style="opacity:0.8;color:#000000;fill:none;stroke:url(#linearGradient18155);stroke-width:1;stroke-linecap:butt;stroke-linejoin:miter;stroke-miterlimit:4;stroke-opacity:1;stroke-dasharray:none;stroke-dashoffset:0;marker:none;visibility:visible;display:inline;overflow:visible;enable-background:accumulate"
         inkscape:connector-curvature="0" />
      <path
         sodipodi:nodetypes="sscsssssssscsss"
         inkscape:connector-curvature="0"
         id="rect4251-3-2"
         d="m 10.5,-30.999999 c -0.8384207,0 -1.5,0.832067 -1.5,1.5 l 0,4.5 -2.5,0 c -1.1558134,0 -1.5,1.079599 -1.5,1.5 l 0,12.45 c 0,0.5817 0.456619,1.05 1.0238094,1.05 l 83.9523806,0 c 0.567191,0 1.02381,-0.4683 1.02381,-1.05 l 0,-12.45 c 0,-0.672063 -0.562261,-1.5 -1.5,-1.5 l -47.5,0 0,-4.5 c 0,-0.788784 -0.692749,-1.5 -1.5,-1.5 z"
         style="color:#000000;fill:url(#linearGradient12459);fill-opacity:1;fill-rule:nonzero;stroke:none;stroke-width:1;marker:none;visibility:visible;display:inline;overflow:visible;enable-background:accumulate" />
      <path
         sodipodi:nodetypes="ccccccccccccc"
         inkscape:connector-curvature="0"
         id="rect4251-9-21-7"
         d="m 10.5,-30.499999 c -0.5872251,0.10637 -0.95027,0.447766 -1,1 l 0,5 -3,0 c -0.5809284,0.05823 -0.9489291,0.353042 -1,1 l -2e-7,13.9999991 85.0000002,0 0,-13.9999991 c -0.09353,-0.778684 -0.49653,-0.982634 -1,-1 l -48,0 0,-5 c -0.05959,-0.637493 -0.410196,-0.951634 -1,-1 z"
         style="color:#000000;fill:none;stroke:url(#linearGradient12463);stroke-width:0.99999976;stroke-linecap:round;stroke-linejoin:round;stroke-miterlimit:4;stroke-opacity:1;stroke-dasharray:none;stroke-dashoffset:0;marker:none;visibility:visible;display:inline;overflow:visible;enable-background:accumulate" />
      <rect
         width="76.684975"
         height="12.077923"
         x="9.6685123"
         y="33.454079"
         id="rect4173-8-8"
         style="opacity:0.3;fill:url(#linearGradient12467);fill-opacity:1;fill-rule:nonzero;stroke:none;stroke-width:1;marker:none;visibility:visible;display:inline;overflow:visible" />
      <path
         d="m 86.353483,33.454503 c 0,0 0,12.077258 0,12.077258 3.172057,0.02275 7.668491,-2.705897 7.668491,-6.039404 0,-3.333506 -3.539785,-6.037854 -7.668491,-6.037854 z"
         inkscape:connector-curvature="0"
         id="path5058-9-0"
         style="opacity:0.3;fill:url(#radialGradient12471);fill-opacity:1;fill-rule:nonzero;stroke:none;stroke-width:1;marker:none;visibility:visible;display:inline;overflow:visible" />
      <path
         d="m 9.6684912,33.454503 c 0,0 0,12.077258 0,12.077258 C 6.4964337,45.554511 2,42.825864 2,39.492357 2,36.158851 5.5397853,33.454503 9.6684912,33.454503 Z"
         inkscape:connector-curvature="0"
         id="path5018-6-6"
         style="opacity:0.3;fill:url(#radialGradient12475);fill-opacity:1;fill-rule:nonzero;stroke:none;stroke-width:1;marker:none;visibility:visible;display:inline;overflow:visible" />
      <path
         sodipodi:nodetypes="ccsscccsc"
         d="m 4.3360685,-17.499997 c -1.496068,0.534816 -1.3252964,1.367822 -1.33402,1.876795 l 2.008001,53.639336 c 0.055752,1.48929 0.9996388,2.483867 2.4990969,2.483867 l 80.9707396,0 c 1.499457,0 2.499096,-0.993547 2.499096,-2.483867 0,0 1.896081,-52.504103 1.967112,-53.357882 0.116149,-0.78283 -0.608381,-2.158251 -1.946094,-2.158251 z"
         inkscape:connector-curvature="0"
         id="path3388-7-1"
         style="fill:url(#linearGradient12481);fill-opacity:1;stroke:none" />
      <path
         sodipodi:nodetypes="ssccccccs"
         d="m 4.5681736,-17.998875 86.8636524,8.14e-4 c 1.254895,0 1.996358,0.912556 1.996358,2.040218 l -1.971146,53.818556 c -0.123122,1.787131 -0.968822,3.085032 -2.799854,3.139288 l -81.457184,0 C 5.4630556,40.871731 4.5756201,39.64185 4.5028636,38.046972 L 2.5,-15.963408 c 0,-1.127663 0.8132791,-2.035467 2.0681736,-2.035467 z"
         inkscape:connector-curvature="0"
         id="path6127-1-4"
         style="opacity:0.4;fill:url(#linearGradient12487);fill-opacity:1;stroke:none" />
      <path
         sodipodi:nodetypes="ccsscccsc"
         d="m 4.3251027,-17.498855 c -1.4498058,0.490696 -1.3251137,1.367794 -1.3416418,1.884521 l 2.014212,53.485004 c 0.055801,1.481731 0.7176742,2.629332 2.4993083,2.629339 l 81.0291138,3.01e-4 c 1.919334,0.0462 2.430691,-1.630307 2.434048,-2.9013 0,0 1.927661,-52.249247 1.99867,-53.103009 0,-0.89896 -0.832577,-1.996015 -1.958813,-1.996 z"
         inkscape:connector-curvature="0"
         id="path3388-7-1-7"
         style="opacity:0.3;fill:none;stroke:#000000;stroke-width:1;stroke-linecap:round;stroke-linejoin:round;stroke-miterlimit:4;stroke-opacity:1;stroke-dashoffset:0" />
      <path
         sodipodi:nodetypes="ccccccccc"
         inkscape:connector-curvature="0"
         id="path8263"
         d="M 5,-16.50001 C 4.1930051,-16.53398 3.9234407,-16.238472 4,-15.499999 4.5788399,1.3358033 5.4366806,21.442605 6.0141504,38.278431 6.2647172,39.293687 6.5140709,39.51614 8,39.500001 c 25.953775,0.01531 54.546235,-0.01531 80.5,0 0.87582,-0.01003 1.33346,-0.395498 1.5,-2 0.629524,-16.851886 1.95,-52.8 1.95,-52.8 0.0098,-0.764126 -0.447953,-1.296561 -1.45,-1.200003 z"
         style="opacity:0.5;fill:none;stroke:url(#linearGradient5891);stroke-width:1;stroke-linecap:round;stroke-linejoin:round;stroke-miterlimit:4;stroke-opacity:1;stroke-dasharray:none;stroke-dashoffset:0;marker:none;visibility:visible;display:inline;overflow:visible;enable-background:accumulate" />
    </g>
    <g
       id="g4588"
       transform="matrix(0.90077253,0,0,0.90077253,4.7866614,1.1298964)"
       style="stroke-width:1.11015821">
      <g
         id="g4576"
         transform="matrix(0.02345232,0,0,0.02345232,103.70888,26.25601)"
         style="opacity:0.62699998;fill:#ffffff;fill-opacity:1;stroke:none;stroke-width:47.33683395">
        <path
           transform="translate(0,-48)"
           inkscape:connector-curvature="0"
           id="path4568"
           d="m -3080.2108,-470.48307 c -23.6249,-9.31101 -53.895,-34.43256 -67.5463,-56.05762 -43.9609,-69.63856 -14.9992,-163.61328 61.3341,-199.01637 18.5446,-8.60093 28.7581,-10.58903 54.8701,-10.68073 28.3136,-0.0994 35.2225,1.43234 58.7894,13.03432 29.6162,14.57998 52.9142,38.00108 67.6304,67.9876 7.5535,15.39157 9.2802,25.49439 9.3772,54.86541 0.1041,31.52743 -1.2819,38.85265 -11.1563,58.9611 -24.2716,49.42745 -65.583,76.09959 -120.7248,77.94428 -24.5959,0.82283 -36.7604,-0.80562 -52.5738,-7.03799 z"
           style="opacity:0.85900005;fill:#ffffff;fill-opacity:1;stroke:none;stroke-width:236.6842041;stroke-linecap:round;stroke-linejoin:bevel;stroke-miterlimit:4;stroke-dasharray:none;stroke-dashoffset:0;stroke-opacity:0.4" />
        <path
           transform="translate(0,-48)"
           inkscape:connector-curvature="0"
           id="path4570"
           d="m -2815.8295,-1170.0077 c -58.2352,-33.4031 -65.1695,-109.4508 -13.9758,-153.2707 39.3022,-33.6412 89.8944,-30.9828 126.6109,6.6527 32.3838,33.1945 37.946,74.4289 15.2616,113.1397 -25.5467,43.5951 -83.714,58.821 -127.8967,33.4783 z"
           style="opacity:0.85900005;fill:#ffffff;fill-opacity:1;stroke:none;stroke-width:236.6842041;stroke-linecap:round;stroke-linejoin:bevel;stroke-miterlimit:4;stroke-dasharray:none;stroke-dashoffset:0;stroke-opacity:0.4" />
        <path
           transform="translate(0,-48)"
           inkscape:connector-curvature="0"
           id="path4572"
           d="m -2593.637,270.88614 c -74.7304,-12.5096 -138.2803,-68.82541 -160.6043,-142.32235 -10.5917,-34.870949 -8.9707,-89.037437 3.7122,-124.0478128 15.1473,-41.8127842 48.2572,-81.1951842 88.8921,-105.7320972 39.2588,-23.70595 103.5905,-32.0714 150.5264,-19.57384 102.8073,27.374375 169.7074,139.075721 143.5172,239.62672 -26.4218,101.44039 -126.4454,168.7217 -226.0436,152.04938 z"
           style="opacity:0.85900005;fill:#ffffff;fill-opacity:1;stroke:none;stroke-width:236.6842041;stroke-linecap:round;stroke-linejoin:bevel;stroke-miterlimit:4;stroke-dasharray:none;stroke-dashoffset:0;stroke-opacity:0.4" />
        <path
           transform="translate(0,-48)"
           inkscape:connector-curvature="0"
           id="path4574"
           d="m -2170.8977,-413.63738 -90.6221,-90.71308 136.9414,-137.89136 c 75.3178,-75.84024 152.1816,-153.7422 170.8085,-173.11548 l 33.867,-35.22416 -170.8747,-170.90944 -170.8748,-170.9094 92.0221,-91.9569 92.0221,-91.9568 262.6669,262.6668 262.6668,262.6669 -119.6812,121.89672 c -65.8248,67.0432 -184.625,185.85576 -264.0007,264.02796 l -144.3193,142.13128 z"
           style="opacity:0.85900005;fill:#ffffff;fill-opacity:1;stroke:none;stroke-width:236.6842041;stroke-linecap:round;stroke-linejoin:bevel;stroke-miterlimit:4;stroke-dasharray:none;stroke-dashoffset:0;stroke-opacity:0.4" />
      </g>
      <g
         style="fill:#3c7195;fill-opacity:1;stroke:none;stroke-width:47.33683395"
         transform="matrix(0.02345232,0,0,0.02345232,103.48033,24.63469)"
         id="g4558">
        <path
           style="opacity:0.85900005;fill:#3c7195;fill-opacity:1;stroke:none;stroke-width:236.6842041;stroke-linecap:round;stroke-linejoin:bevel;stroke-miterlimit:4;stroke-dasharray:none;stroke-dashoffset:0;stroke-opacity:0.4"
           d="m -3080.2108,-470.48307 c -23.6249,-9.31101 -53.895,-34.43256 -67.5463,-56.05762 -43.9609,-69.63856 -14.9992,-163.61328 61.3341,-199.01637 18.5446,-8.60093 28.7581,-10.58903 54.8701,-10.68073 28.3136,-0.0994 35.2225,1.43234 58.7894,13.03432 29.6162,14.57998 52.9142,38.00108 67.6304,67.9876 7.5535,15.39157 9.2802,25.49439 9.3772,54.86541 0.1041,31.52743 -1.2819,38.85265 -11.1563,58.9611 -24.2716,49.42745 -65.583,76.09959 -120.7248,77.94428 -24.5959,0.82283 -36.7604,-0.80562 -52.5738,-7.03799 z"
           id="path4546"
           inkscape:connector-curvature="0"
           transform="translate(0,-48)" />
        <path
           style="opacity:0.85900005;fill:#3c7195;fill-opacity:1;stroke:none;stroke-width:236.6842041;stroke-linecap:round;stroke-linejoin:bevel;stroke-miterlimit:4;stroke-dasharray:none;stroke-dashoffset:0;stroke-opacity:0.4"
           d="m -2815.8295,-1170.0077 c -58.2352,-33.4031 -65.1695,-109.4508 -13.9758,-153.2707 39.3022,-33.6412 89.8944,-30.9828 126.6109,6.6527 32.3838,33.1945 37.946,74.4289 15.2616,113.1397 -25.5467,43.5951 -83.714,58.821 -127.8967,33.4783 z"
           id="path4548"
           inkscape:connector-curvature="0"
           transform="translate(0,-48)" />
        <path
           style="opacity:0.85900005;fill:#3c7195;fill-opacity:1;stroke:none;stroke-width:236.6842041;stroke-linecap:round;stroke-linejoin:bevel;stroke-miterlimit:4;stroke-dasharray:none;stroke-dashoffset:0;stroke-opacity:0.4"
           d="m -2593.637,270.88614 c -74.7304,-12.5096 -138.2803,-68.82541 -160.6043,-142.32235 -10.5917,-34.870949 -8.9707,-89.037437 3.7122,-124.0478128 15.1473,-41.8127842 48.2572,-81.1951842 88.8921,-105.7320972 39.2588,-23.70595 103.5905,-32.0714 150.5264,-19.57384 102.8073,27.374375 169.7074,139.075721 143.5172,239.62672 -26.4218,101.44039 -126.4454,168.7217 -226.0436,152.04938 z"
           id="path4550"
           inkscape:connector-curvature="0"
           transform="translate(0,-48)" />
        <path
           style="opacity:0.85900005;fill:#3c7195;fill-opacity:1;stroke:none;stroke-width:236.6842041;stroke-linecap:round;stroke-linejoin:bevel;stroke-miterlimit:4;stroke-dasharray:none;stroke-dashoffset:0;stroke-opacity:0.4"
           d="m -2170.8977,-413.63738 -90.6221,-90.71308 136.9414,-137.89136 c 75.3178,-75.84024 152.1816,-153.7422 170.8085,-173.11548 l 33.867,-35.22416 -170.8747,-170.90944 -170.8748,-170.9094 92.0221,-91.9569 92.0221,-91.9568 262.6669,262.6668 262.6668,262.6669 -119.6812,121.89672 c -65.8248,67.0432 -184.625,185.85576 -264.0007,264.02796 l -144.3193,142.13128 z"
           id="path4552"
           inkscape:connector-curvature="0"
           transform="translate(0,-48)" />
      </g>
    </g>
  </g>
</svg>
