<?xml version="1.0" encoding="UTF-8" standalone="no"?>
<svg
   xmlns:dc="http://purl.org/dc/elements/1.1/"
   xmlns:cc="http://creativecommons.org/ns#"
   xmlns:rdf="http://www.w3.org/1999/02/22-rdf-syntax-ns#"
   xmlns:svg="http://www.w3.org/2000/svg"
   xmlns="http://www.w3.org/2000/svg"
   xmlns:xlink="http://www.w3.org/1999/xlink"
   xmlns:sodipodi="http://sodipodi.sourceforge.net/DTD/sodipodi-0.dtd"
   xmlns:inkscape="http://www.inkscape.org/namespaces/inkscape"
   version="1.1"
   width="16"
   height="16"
   id="svg8860"
   sodipodi:docname="smbShare_Edit.svg"
   inkscape:version="0.92.1 r15371">
  <sodipodi:namedview
     pagecolor="#ffffff"
     bordercolor="#666666"
     borderopacity="1"
     objecttolerance="10"
     gridtolerance="10"
     guidetolerance="10"
     inkscape:pageopacity="0"
     inkscape:pageshadow="2"
     inkscape:window-width="1487"
     inkscape:window-height="763"
     id="namedview34"
     showgrid="false"
     showguides="true"
     inkscape:guide-bbox="true"
     inkscape:zoom="2.6074563"
     inkscape:cx="37.881399"
     inkscape:cy="9.6992109"
     inkscape:window-x="328"
     inkscape:window-y="134"
     inkscape:window-maximized="0"
     inkscape:current-layer="svg8860" />
  <defs
     id="defs8862">
    <linearGradient
       inkscape:collect="always"
       id="linearGradient5334">
      <stop
         style="stop-color:#042d3e;stop-opacity:1;"
         offset="0"
         id="stop5330" />
      <stop
         style="stop-color:#0a6e98;stop-opacity:1"
         offset="1"
         id="stop5332" />
    </linearGradient>
    <linearGradient
       inkscape:collect="always"
       id="linearGradient5186">
      <stop
         style="stop-color:#0c84b5;stop-opacity:1;"
         offset="0"
         id="stop5182" />
      <stop
         style="stop-color:#9cdef8;stop-opacity:1"
         offset="1"
         id="stop5184" />
    </linearGradient>
    <linearGradient
       x1="11.350123"
       y1="0.66696572"
       x2="11.350123"
       y2="8.1721792"
       id="linearGradient10270-0"
       xlink:href="#linearGradient3454-2-5-0-3-8"
       gradientUnits="userSpaceOnUse"
       gradientTransform="matrix(0.89189031,0,0,0.94046961,3.14398,5.346537)" />
    <linearGradient
       id="linearGradient3454-2-5-0-3-8">
      <stop
         id="stop3456-4-9-38-1-9"
         style="stop-color:#ffffff;stop-opacity:1"
         offset="0" />
      <stop
         id="stop3458-39-80-3-5-6"
         style="stop-color:#ffffff;stop-opacity:0.23529412"
         offset="0.0097359" />
      <stop
         id="stop3460-7-0-2-4-4"
         style="stop-color:#ffffff;stop-opacity:0.15686275"
         offset="0.99001008" />
      <stop
         id="stop3462-0-9-8-7-8"
         style="stop-color:#ffffff;stop-opacity:0.39215687"
         offset="1" />
    </linearGradient>
    <linearGradient
       x1="76.041"
       y1="49.372032"
       x2="76.041"
       y2="35.430561"
       id="linearGradient10268-4"
       xlink:href="#linearGradient6129-963-697-142-998-580-273-44-2-2-2"
       gradientUnits="userSpaceOnUse"
       gradientTransform="matrix(0.38156409,0,0,0.32896952,-18.24159,0.28216731)" />
    <linearGradient
       id="linearGradient6129-963-697-142-998-580-273-44-2-2-2">
      <stop
         id="stop2661-01-6-2-4"
         style="stop-color:#0a0a0a;stop-opacity:0.498"
         offset="0" />
      <stop
         id="stop2663-64-5-5-3"
         style="stop-color:#0a0a0a;stop-opacity:0"
         offset="1" />
    </linearGradient>
    <linearGradient
       x1="84.30883"
       y1="16.110577"
       x2="84.30883"
       y2="42.923553"
       id="linearGradient10262-3"
       xlink:href="#linearGradient4632-0-6-4-4"
       gradientUnits="userSpaceOnUse"
       gradientTransform="matrix(0.33333327,0,0,0.34148555,-17.08621,-0.60407268)" />
    <linearGradient
       id="linearGradient4632-0-6-4-4">
      <stop
         id="stop4634-4-4-7-5"
         style="stop-color:#e9e9e9;stop-opacity:1"
         offset="0" />
      <stop
         id="stop4636-3-1-5-4"
         style="stop-color:#b4b4b4;stop-opacity:1"
         offset="1" />
    </linearGradient>
    <linearGradient
       x1="-51.786404"
       y1="53.514328"
       x2="-51.786404"
       y2="2.0612748"
       id="linearGradient10473-4-0"
       xlink:href="#linearGradient3104-8-8-97-4-6-11-5-5-4-4"
       gradientUnits="userSpaceOnUse"
       gradientTransform="matrix(0.31070043,0,0,0.27489387,20.17717,-0.10316268)" />
    <linearGradient
       id="linearGradient3104-8-8-97-4-6-11-5-5-4-4">
      <stop
         id="stop3106-5-4-3-5-0-2-1-0-7-7"
         style="stop-color:#000000;stop-opacity:0.32173914"
         offset="0" />
      <stop
         id="stop3108-4-3-7-8-2-0-7-9-0-6"
         style="stop-color:#000000;stop-opacity:0.27826086"
         offset="1" />
    </linearGradient>
    <linearGradient
       id="linearGradient4346">
      <stop
         id="stop4348"
         style="stop-color:#ffffff;stop-opacity:1"
         offset="0" />
      <stop
         id="stop4350"
         style="stop-color:#d8d8d8;stop-opacity:1"
         offset="1" />
    </linearGradient>
    <linearGradient
       x1="62.988873"
       y1="11.645091"
       x2="62.988873"
       y2="15.385052"
       id="linearGradient8858"
       xlink:href="#linearGradient4346"
       gradientUnits="userSpaceOnUse"
       gradientTransform="matrix(0.33333327,0,0,0.32971018,-17.44063,-0.64784268)" />
    <linearGradient
       inkscape:collect="always"
       xlink:href="#linearGradient5334"
       id="linearGradient5188"
       x1="2.7118654"
       y1="6.2523274"
       x2="13.096377"
       y2="1.2666254"
       gradientUnits="userSpaceOnUse"
       gradientTransform="matrix(1.1631785,0,0,1.1631785,-1.3054281,-1.0202454)" />
    <linearGradient
       inkscape:collect="always"
       xlink:href="#linearGradient5186"
       id="linearGradient5225"
       x1="136.40677"
       y1="59.118645"
       x2="165.69492"
       y2="38.237289"
       gradientUnits="userSpaceOnUse" />
    <linearGradient
       inkscape:collect="always"
       xlink:href="#linearGradient5186"
       id="linearGradient5258"
       gradientUnits="userSpaceOnUse"
       x1="136.40677"
       y1="59.118645"
       x2="165.69492"
       y2="38.237289"
       gradientTransform="matrix(0.26149429,0,0,0.26149429,5.1990094,-7.1269778)" />
    <linearGradient
       inkscape:collect="always"
       xlink:href="#linearGradient5186"
       id="linearGradient5260"
       gradientUnits="userSpaceOnUse"
       x1="136.40677"
       y1="59.118645"
       x2="165.69492"
       y2="38.237289" />
    <linearGradient
       inkscape:collect="always"
       xlink:href="#linearGradient4346"
       id="linearGradient5336"
       x1="10.418868"
       y1="10.065409"
       x2="8.8710938"
       y2="1.7949219"
       gradientUnits="userSpaceOnUse"
       gradientTransform="matrix(0.92319069,0,0,0.92319069,0.5312833,0.64411966)" />
    <linearGradient
       inkscape:collect="always"
       xlink:href="#linearGradient3707-319-631-407-324-6"
       id="linearGradient4595"
       x1="-45.309902"
       y1="14.906739"
       x2="-42.798878"
       y2="7.4472899"
       gradientUnits="userSpaceOnUse" />
    <linearGradient
       id="linearGradient3707-319-631-407-324-6">
      <stop
         offset="0"
         style="stop-color:#185f9a;stop-opacity:1;"
         id="stop3760-3" />
      <stop
         offset="1"
         style="stop-color:#599ec9;stop-opacity:1;"
         id="stop3762-1" />
    </linearGradient>
    <radialGradient
       inkscape:collect="always"
       xlink:href="#linearGradient2867-449-88-871-390-598-476-591-434-148-57-177-0"
       id="radialGradient4582"
       cx="9.366333"
       cy="1.7182109"
       fx="9.366333"
       fy="1.7182109"
       r="5.3840141"
       gradientUnits="userSpaceOnUse"
       gradientTransform="matrix(3.3916672,1.7022433,-0.99903539,1.9905471,-68.457212,-18.83658)" />
    <linearGradient
       id="linearGradient2867-449-88-871-390-598-476-591-434-148-57-177-0">
      <stop
         offset="0"
         style="stop-color:#90dbec;stop-opacity:1;"
         id="stop3750-4" />
      <stop
         offset="0.26238"
         style="stop-color:#55c1ec;stop-opacity:1;"
         id="stop3752-4" />
      <stop
         offset="0.704952"
         style="stop-color:#3689e6;stop-opacity:1;"
         id="stop3754-4" />
      <stop
         offset="1"
         style="stop-color:#2b63a0;stop-opacity:1;"
         id="stop3756-4" />
    </linearGradient>
    <linearGradient
       inkscape:collect="always"
       xlink:href="#linearGradient4346"
       id="linearGradient5336-3"
       x1="10.418868"
       y1="10.065409"
       x2="8.8710938"
       y2="1.7949219"
       gradientUnits="userSpaceOnUse"
       gradientTransform="matrix(0.80806945,0,0,0.80806945,-49.350238,0.5692302)" />
    <linearGradient
       inkscape:collect="always"
       xlink:href="#linearGradient8265-821-176-38-919-66-249-7-7"
       id="linearGradient4601"
       gradientUnits="userSpaceOnUse"
       gradientTransform="matrix(1.0114409,0,0,1.0114409,-50.928547,-0.68774019)"
       x1="10.418868"
       y1="10.065409"
       x2="8.8710938"
       y2="1.7949219" />
    <linearGradient
       id="linearGradient8265-821-176-38-919-66-249-7-7">
      <stop
         id="stop2687-1-9"
         style="stop-color:#ffffff;stop-opacity:1"
         offset="0" />
      <stop
         id="stop2689-5-4"
         style="stop-color:#ffffff;stop-opacity:0"
         offset="1" />
    </linearGradient>
    <linearGradient
       y2="43"
       x2="23.99999"
       y1="4.999989"
       x1="23.99999"
       gradientTransform="matrix(0.2972973,0,0,0.2972973,-1.7659156,19.986818)"
       gradientUnits="userSpaceOnUse"
       id="linearGradient3079-9"
       xlink:href="#linearGradient3924-4-8"
       inkscape:collect="always" />
    <linearGradient
       id="linearGradient3924-4-8">
      <stop
         id="stop3926-0-4"
         style="stop-color:#ffffff;stop-opacity:1;"
         offset="0" />
      <stop
         offset="0.06316455"
         style="stop-color:#ffffff;stop-opacity:0.23529412;"
         id="stop3928-6-8" />
      <stop
         id="stop3930-2-1"
         style="stop-color:#ffffff;stop-opacity:0.15686275;"
         offset="0.95056331" />
      <stop
         id="stop3932-9-0"
         style="stop-color:#ffffff;stop-opacity:0.39215687;"
         offset="1" />
    </linearGradient>
  </defs>
  <metadata
     id="metadata8865">
    <rdf:RDF>
      <cc:Work
         rdf:about="">
        <dc:format>image/svg+xml</dc:format>
        <dc:type
           rdf:resource="http://purl.org/dc/dcmitype/StillImage" />
        <dc:title />
      </cc:Work>
    </rdf:RDF>
  </metadata>
  <rect
     style="opacity:1;fill:#ffffff;fill-opacity:1;stroke:#0d8bbe;stroke-width:5;stroke-linecap:round;stroke-linejoin:bevel;stroke-miterlimit:4;stroke-dasharray:none;stroke-dashoffset:0;stroke-opacity:1"
     id="rect5190"
     width="149.57106"
     height="108.5349"
     x="-70.279221"
     y="-34.240536"
     ry="0.72881401" />
  <image
     sodipodi:absref="/home/odo/Datos/Sync/System/themes/packs/elementary-breeze/edited_icons/app_smb4k/edit/cloud_share-512.png"
     xlink:href="cloud_share-512.png"
     y="-69.402596"
     x="112.23845"
     id="image5102"
     style="stroke-width:13.11111069;image-rendering:optimizeQuality"
     preserveAspectRatio="none"
     height="39.05085"
     width="39.05085" />
  <image
     sodipodi:absref="/home/odo/Datos/Sync/System/themes/packs/elementary-breeze/edited_icons/app_smb4k/edit/1a393e01dc4ac54793ceab0403897b03--social-web-pitch.jpg"
     xlink:href="1a393e01dc4ac54793ceab0403897b03--social-web-pitch.jpg"
     y="-30.351746"
     x="103.97894"
     id="image5113"
     preserveAspectRatio="none"
     height="47.310352"
     width="47.310352"
     style="stroke-width:4.98833704" />
  <circle
     style="opacity:1;fill:#4d4d4d;fill-opacity:1;stroke:none;stroke-width:5;stroke-linecap:round;stroke-linejoin:bevel;stroke-miterlimit:4;stroke-dasharray:none;stroke-dashoffset:0;stroke-opacity:1"
     id="path5126"
     cx="57.654701"
     cy="-24.599304"
     r="2.5887299" />
  <circle
     cx="-32.269131"
     cy="7.5946317"
     r="6.1694927"
     id="circle5242"
     style="opacity:1;fill:#4d4d4d;fill-opacity:1;stroke:none;stroke-width:5;stroke-linecap:round;stroke-linejoin:bevel;stroke-miterlimit:4;stroke-dasharray:none;stroke-dashoffset:0;stroke-opacity:1" />
  <g
     transform="matrix(0.93518029,0,0,0.93518029,-125.34701,-986.32088)"
     id="layer1-3"
     inkscape:label="Capa 1"
     style="opacity:1;fill:#042d3e;fill-opacity:1;stroke-width:1.06931257">
    <path
       transform="translate(0,1036.3622)"
       id="path26"
       d="M 8,2 C 4.6862915,2 2,4.6862868 2,8 c 0,3.313713 2.6862915,6 6,6 3.313708,0 6,-2.686287 6,-6 C 14,4.6862868 11.313708,2 8,2 Z m 0,1 c 0.172589,0 0.3319146,0.01418 0.5,0.03125 0.04034,0.00397 0.084959,-0.00492 0.125,0 0.052621,0.00667 0.1041519,0.022959 0.15625,0.03125 0.1436522,0.02258 0.2670253,0.059224 0.40625,0.09375 0.2565966,0.063297 0.5107233,0.1487945 0.75,0.25 0.131926,0.0558 0.249149,0.1209856 0.375,0.1875 -7.5e-5,0.009 8e-4,0.02025 0,0.03125 0.02898,0.013 0.04478,0.06675 0.09375,0.09375 0.01798,0.01 0.01431,0.02225 0.03125,0.03125 0.02898,0.016 0.06849,0.0335 0.0625,0.0625 -0.008,0.04 -0.06575,0.0315 -0.09375,0.0625 0.0038,0.058 -0.04754,0.05475 -0.0625,0.09375 0.009,0.025 0.05854,0.0325 0.0625,0.0625 -0.0049,0.032 -0.07452,0.0295 -0.0625,0.0625 0.05401,0.042 0.105254,0.01 0.15625,0 0.111991,-0.014 0.212253,-0.0055 0.28125,-0.0625 C 10.77225,3.97825 10.88099,3.9856 10.875,3.9375 10.90366,3.958382 10.9403,3.978817 10.96875,4 10.95799,4.01008 10.94958,4.02585 10.9375,4.03125 10.91649,4.04125 10.89401,4.0505 10.875,4.0625 10.847,4.0805 10.81328,4.104 10.78125,4.125 10.75826,4.141 10.7115,4.21875 10.6875,4.21875 c -0.02899,0 -0.07275,-0.03725 -0.09375,-0.03125 -0.03003,0.01 -0.02856,0.0505 -0.0625,0.0625 -0.06599,0.024 -0.195755,-0.0365 -0.21875,0.0625 0.028,0.057 0.137505,0.0305 0.1875,0.0625 0.03102,0.02 0.08575,0.091 0.09375,0.125 0.008,0.028 0.01199,0.1575 0,0.1875 C 10.56273,4.7675 10.466988,4.751 10.375,4.75 H 10.3125 C 10.157516,4.74 10.007499,4.67025 9.9375,4.78125 9.94245,4.86625 9.95653,4.926 9.9375,5 9.92353,5.054 9.840752,5.10965 9.84375,5.15625 9.84485,5.18025 9.900255,5.216 9.90625,5.25 c 0.00385,0.018 -0.00807,0.0455 0,0.0625 0.026015,0.049 0.079004,-0.01 0.125,0 0.044,0.01 0.09375,0.0758 0.09375,0.125 0,0.035 -0.0092,0.0911 -0.03125,0.125 -0.044,0.066 -0.124503,0.05775 -0.1875,0.09375 C 9.854275,5.68625 9.843502,5.7609 9.8125,5.8125 9.7795,5.8685 9.736983,5.88865 9.75,5.96875 9.70501,6.05775 9.655488,6.11325 9.5625,6.15625 9.535495,6.16825 9.493747,6.1695 9.46875,6.1875 9.44873,6.2015 9.434272,6.24925 9.40625,6.28125 9.37127,6.32025 9.331497,6.345 9.3125,6.375 9.298475,6.398 9.29621,6.43675 9.28125,6.46875 9.25925,6.51075 9.215494,6.5203 9.1875,6.5625 9.17452,6.5825 9.17022,6.63025 9.15625,6.65625 9.12424,6.71425 9.087749,6.7615 9.09375,6.8125 9.0987,6.8605 9.153252,6.86225 9.15625,6.90625 9.159,6.93025 9.12401,6.94175 9.125,6.96875 c 0.0011,0.038 0.02828,0.06375 0.03125,0.09375 0.00699,0.074 -0.04853,0.10565 -0.0625,0.15625 -0.00699,0.024 0.006,0.0425 0,0.0625 -0.01199,0.037 -0.061499,0.0808 -0.0625,0.125 C 9.03015,7.43725 9.09078,7.456 9.09375,7.5 9.09595,7.529 9.056505,7.56575 9.0625,7.59375 9.0735,7.64775 9.1767575,7.708 9.21875,7.75 9.275747,7.807 9.350008,7.84625 9.375,7.90625 c 0.02101,0.051 0.023533,0.1494 0.0625,0.1875 0.028985,0.028 0.088007,0.0325 0.125,0.0625 0.03498,0.027 0.056753,0.0325 0.09375,0.0625 0.060995,0.048 0.153002,0.16325 0.25,0.15625 0.050985,-0.01 0.099254,-0.0525 0.15625,-0.0625 0.059,-0.01 0.127506,-0.03625 0.1875,-0.03125 0.04598,0.01 0.108253,0.03425 0.15625,0.03125 0.04999,-0.01 0.09926,-0.00625 0.15625,-0.03125 0.099,-0.043 0.262266,-0.11445 0.40625,-0.09375 0.109989,0.016 0.110505,0.1385 0.1875,0.1875 0.08799,0.01 0.148757,-0.017 0.21875,0 0.05302,0.013 0.120001,0.0834 0.125,0.125 0.005,0.043 -0.05651,0.0978 -0.0625,0.125 -0.01397,0.058 0.01,0.11925 0,0.15625 -0.008,0.029 -0.03224,0.06475 -0.03125,0.09375 0,0.026 0.03548,0.0908 0.0625,0.125 0.033,0.042 0.085,0.0798 0.125,0.125 0.07299,0.084 0.105254,0.17025 0.15625,0.28125 0.01298,0.028 -0.01199,0.05775 0,0.09375 -0.022,0.1679 -0.07751,0.28285 -0.1875,0.46875 -0.05198,0.06 -0.126001,0.1126 -0.125,0.1875 -0.0038,0.18 0.10175,0.29475 0.09375,0.46875 -0.01798,0.2339 0.01804,0.2501 0,0.375 0.079,0.04 0.02299,0.1669 0,0.25 -0.03399,0.099 -0.07475,0.1215 -0.09375,0.1875 0.05308,0.02314 0.128521,0.01359 0.1875,0 -0.0298,0.03137 -0.06316,0.06316 -0.09375,0.09375 -0.226206,0.226206 -0.483998,0.445293 -0.75,0.625 -0.516043,0.348632 -1.0900087,0.613448 -1.71875,0.75 C 8.718961,12.980861 8.3658887,13 8,13 7.8096669,13 7.6218651,12.989959 7.4375,12.96875 7.2906389,12.951989 7.1427139,12.935453 7,12.90625 6.7168255,12.848304 6.4510281,12.728616 6.1875,12.625 6.17813,12.60785 6.154124,12.58262 6.15625,12.5625 c 0.051975,-0.022 0.149506,0.074 0.1875,0 0.01903,-0.035 -0.025025,-0.12125 0,-0.15625 C 6.361735,12.38225 6.463007,12.382 6.5,12.375 6.55302,12.365 6.626253,12.35775 6.65625,12.34375 6.68925,12.32275 6.724751,12.2491 6.71875,12.1875 6.716,12.1585 6.679185,12.151 6.65625,12.125 c -0.018975,-0.022 0.01298,-0.0415 0,-0.0625 C 6.63227,12.0275 6.572499,12.01975 6.5625,11.96875 6.634495,11.95475 6.7397615,12.029 6.84375,12 6.892755,11.986 6.976999,11.88985 7,11.84375 c 0.00699,-0.014 -0.00798,-0.0445 0,-0.0625 0.00902,-0.018 0.028225,-0.0525 0.03125,-0.0625 0.00698,-0.027 -0.006,-0.01325 0,-0.03125 0.017985,-0.051 0.063747,-0.0887 0.09375,-0.125 0.02299,-0.028 0.072723,-0.06475 0.09375,-0.09375 0.02398,-0.031 0.0153,-0.0345 0.03125,-0.0625 0.015015,-0.091 -0.05325,-0.1701 -0.03125,-0.25 0.02398,-0.09 0.163012,-0.1465 0.25,-0.1875 0.029975,-0.014 0.068752,-0.02225 0.09375,-0.03125 0.059994,-0.021 0.1315045,-0.0425 0.1875,-0.0625 0.093995,-0.034 0.110248,-0.1016 0.15625,-0.1875 0.022,-0.04 0.058485,-0.0957 0.0625,-0.125 0.00385,-0.026 -0.00495,-0.0315 0,-0.0625 0.00495,-0.029 -0.00798,-0.05975 0,-0.09375 C 7.97975,10.36325 8,10.26665 8,10.21875 8,10.17875 7.96974,10.161 7.96875,10.125 7.96176,9.995 8.014512,10.0085 8.0625,9.9375 8.08648,9.9025 8.10806,9.8376 8.125,9.8125 8.205993,9.6925 8.353749,9.65075 8.34375,9.46875 8.3399,9.40875 8.293978,9.269 8.25,9.25 8.224975,9.239 8.1932485,9.23175 8.15625,9.21875 8.0382585,9.17475 7.9354855,9.04125 7.8125,9.03125 H 7.75 C 7.701985,9.03125 7.6477435,9.007 7.59375,9 7.55976,8.99 7.4887485,9.01 7.46875,9 7.43773,8.985 7.43122,8.92325 7.40625,8.90625 7.38623,8.89225 7.343493,8.886 7.3125,8.875 7.263495,8.857 7.2444965,8.8165 7.1875,8.8125 c -0.017985,0 -0.042518,0.01 -0.0625,0 C 7.09398,8.8025 7.060246,8.79925 7.03125,8.78125 6.99528,8.75925 6.952498,8.74975 6.9375,8.71875 6.9705,8.61085 6.86575,8.59425 6.84375,8.53125 c -0.01001,-0.029 0.01001,-0.099 0,-0.125 C 6.83077,8.36925 6.791002,8.3435 6.75,8.3125 6.678005,8.2565 6.634243,8.23165 6.53125,8.21875 c -0.04598,-0.01 -0.1012555,0.01 -0.15625,0 C 6.317008,8.20875 6.2314945,8.175 6.1875,8.125 6.14548,8.076 6.130744,8.0231 6.09375,8 6.05877,7.978 6.0239965,7.9605 6,7.9375 5.989,7.9275 5.97876,7.92925 5.96875,7.90625 5.950765,7.86925 5.9155,7.8575 5.9375,7.8125 5.897515,7.7925 5.917993,7.85075 5.875,7.84375 5.836005,7.78875 5.8067385,7.734 5.71875,7.75 5.678765,7.76 5.640747,7.84275 5.59375,7.84375 5.554755,7.84375 5.519746,7.758 5.46875,7.75 5.429755,7.74 5.3707495,7.78625 5.34375,7.78125 5.30074,7.77125 5.288973,7.74475 5.25,7.71875 5.221015,7.69975 5.17225,7.65525 5.15625,7.65625 5.106255,7.65625 5.0689915,7.75515 5,7.71875 4.96601,7.67575 5.071268,7.665 5.03125,7.625 5.001275,7.596 4.992763,7.64225 4.96875,7.65625 4.940755,7.67425 4.905993,7.6765 4.875,7.6875 4.806002,7.7135 4.7414935,7.721 4.6875,7.75 4.637505,7.776 4.622747,7.79245 4.59375,7.84375 4.57076,7.88575 4.534997,7.96675 4.5,7.96875 4.45798,7.96875 4.4442495,7.92325 4.40625,7.90625 4.2912615,7.85625 4.2199905,7.9355 4.125,7.9375 4.037006,7.9375 3.9022515,7.80175 3.90625,7.71875 3.909,7.66775 3.931505,7.59425 3.9375,7.53125 3.94245,7.48125 3.999065,7.4206 4,7.375 4.0011,7.313 3.883746,7.28835 3.84375,7.28125 c -0.093995,-0.017 -0.2055085,0.042 -0.3125,0 C 3.51123,7.24725 3.55051,7.2215 3.5625,7.1875 3.56948,7.1695 3.55551,7.146 3.5625,7.125 3.57449,7.093 3.641257,7.06525 3.65625,7.03125 c 0.011,-0.026 -0.011,-0.06075 0,-0.09375 C 3.66923,6.9015 3.715725,6.86975 3.71875,6.84375 3.7226,6.80975 3.6832,6.772 3.65625,6.75 3.573255,6.76 3.5167485,6.75725 3.46875,6.78125 3.360763,6.83025 3.3902435,6.966 3.28125,7 3.244235,7.012 3.198248,7.02425 3.15625,7.03125 c -0.018315,0.01 -0.04198,-0.002 -0.0625,0 C 3.0957,7.021134 3.09174,7.010094 3.09375,7 3.09841,6.977216 3.120029,6.96017 3.125,6.9375 3.1962653,6.6125035 3.3063949,6.2979344 3.4375,6 h 0.03125 c 0.038005,0.01 0.060755,0.0595 0.09375,0.0625 0.091993,0.01 0.111501,-0.0848 0.1875,-0.125 0.077996,0.011 0.116506,-0.01 0.1875,0 C 3.985515,5.9475 4.055756,5.996 4.09375,6 4.12576,6 4.126248,5.96475 4.15625,5.96875 4.186225,5.97875 4.245,6.0265 4.25,6.0625 4.25495,6.1075 4.205715,6.16915 4.21875,6.21875 4.265775,6.26675 4.3705045,6.2845 4.4375,6.3125 c 0.044,-0.037 0.00698,-0.10425 0,-0.15625 -0.0011,-0.023 0.00275,-0.07275 0,-0.09375 C 4.43255,6.0265 4.40625,5.99975 4.40625,5.96875 c 0,-0.143 0.1227585,-0.1941 0.21875,-0.25 C 4.665975,5.69475 4.7140025,5.643 4.75,5.625 4.800985,5.6 4.8330025,5.61775 4.875,5.59375 4.950988,5.55075 5.0035015,5.4862 5.0625,5.4375 c 0.027005,-0.065 -0.00275,-0.15475 0,-0.21875 0.027005,-0.017 0.064782,0 0.09375,0 C 5.20223,5.20875 5.223996,5.151 5.25,5.125 5.265015,5.11 5.294482,5.10875 5.3125,5.09375 5.35848,5.05775 5.366237,5.016 5.40625,5 5.420275,4.99 5.446723,4.97575 5.46875,4.96875 5.49878,4.95875 5.545757,4.9555 5.59375,4.9375 5.62477,4.9265 5.706749,4.91925 5.71875,4.90625 5.733765,4.89125 5.7149,4.8355 5.71875,4.8125 5.74273,4.6996 5.899009,4.69435 6,4.65625 6.069993,4.63025 6.1407545,4.5485 6.21875,4.5625 6.203735,4.6165 6.143249,4.6224 6.15625,4.6875 6.173245,4.7785 6.280501,4.66925 6.3125,4.65625 6.373495,4.63025 6.4825025,4.5925 6.5625,4.5625 6.632493,4.5375 6.753489,4.5181 6.6875,4.4375 6.6325,4.4275 6.6104935,4.48 6.5625,4.5 6.5295,4.51 6.527978,4.47175 6.5,4.46875 6.472995,4.46875 6.464527,4.505 6.4375,4.5 6.410495,4.49 6.378998,4.43925 6.375,4.40625 6.364,4.32225 6.43476,4.3119 6.46875,4.25 6.44576,4.174 6.3452425,4.2175 6.28125,4.1875 6.28824,4.1425 6.322007,4.10375 6.375,4.09375 6.41801,4.08375 6.5365015,4.102 6.5625,4.125 c 0.015015,0.013 -0.02294,0.0415 0,0.0625 0.026015,0.023 0.059754,0.01 0.09375,0 C 6.66824,4.1305 6.583751,4.162 6.59375,4.125 6.661741,4.081 6.792005,4.10475 6.875,4.09375 6.923015,4.08375 6.988251,4.05425 7.03125,4.03125 7.071235,4.00825 7.0830015,3.962 7.125,4 7.13699,4.041 7.116685,4.07175 7.09375,4.09375 7.016756,4.16175 6.934994,4.2336 6.875,4.3125 c 0.037015,0.036 0.094254,0.02425 0.15625,0.03125 0.02398,0.01 0.068747,-0.005 0.09375,0 0.03003,0.01 0.069748,-0.01 0.09375,0 0.04202,0.01 0.051757,0.09375 0.09375,0.09375 0.067996,0 0.039023,-0.0798 0,-0.125 C 7.32449,4.2655 7.3608,4.2207 7.34375,4.1875 7.31273,4.1255 7.1935005,4.206 7.1875,4.125 7.18365,4.075 7.231993,4.06925 7.25,4.03125 7.24202,3.93525 7.322499,3.93075 7.3125,3.84375 7.30755,3.80775 7.275008,3.81525 7.25,3.78125 7.23702,3.76325 7.23371,3.7015 7.21875,3.6875 7.166775,3.6435 7.0685005,3.67795 7.0625,3.59375 7.05975,3.54375 7.06948,3.4911 7.0625,3.4375 7.05551,3.3865 7.012728,3.22875 6.96875,3.21875 6.912755,3.20675 6.8794955,3.31245 6.8125,3.34375 6.77653,3.36075 6.693243,3.381 6.65625,3.375 6.63227,3.365 6.596753,3.3595 6.59375,3.3125 6.58979,3.2701 6.6405966,3.2512172 6.65625,3.21875 6.66016,3.21063 6.65426,3.19872 6.65625,3.1875 6.7288164,3.1672517 6.8012164,3.1422715 6.875,3.125 6.9169167,3.1152798 6.9576866,3.1024086 7,3.09375 c 0.029877,-0.00622 0.063685,0.00571 0.09375,0 C 7.2273044,3.0689879 7.3629458,3.0451686 7.5,3.03125 7.6662387,3.0137812 7.8289018,3 8,3 Z M 5.96875,3.46875 C 5.9369162,3.6513239 5.7660026,3.7240206 5.5625,3.71875 5.51652,3.76275 5.55622,3.84525 5.53125,3.90625 5.51024,3.95725 5.425991,4.004 5.375,4 5.337985,4 5.28125,3.94125 5.28125,3.90625 5.28125,3.86325 5.349521,3.8617 5.3125,3.8125 5.31415,3.8025 5.333355,3.79125 5.34375,3.78125 5.3639901,3.7685049 5.3858533,3.762493 5.40625,3.75 5.5874525,3.6384834 5.7732114,3.5568279 5.96875,3.46875 Z m 4.1875,0.1875 C 10.13782,3.66625 10.14122,3.6775 10.125,3.6875 10.08699,3.7105 10.06026,3.739 10.03125,3.75 9.99028,3.765 9.943504,3.7755 9.9375,3.8125 9.93255,3.8435 9.969795,3.846 9.96875,3.875 9.953735,3.912 9.94553,3.92375 9.9375,3.96875 c 0.050985,0.083 0.155758,-0.01825 0.21875,-0.03125 0.028,-0.01 0.0475,-0.00725 0.0625,-0.03125 0.01699,-0.027 0.01831,-0.05555 0.03125,-0.09375 0.01403,-0.042 0.06751,-0.05675 0.0625,-0.09375 -0.0038,-0.037 -0.09426,-0.0675 -0.15625,-0.0625 z M 4.6875,4.28125 C 4.734912,4.319347 4.8015588,4.40185 4.71875,4.4375 4.70874,4.4475 4.5864965,4.47275 4.5625,4.46875 4.55282,4.46875 4.539734,4.44475 4.53125,4.4375 4.582913,4.387192 4.6337069,4.3293033 4.6875,4.28125 Z m 0.1875,0.1875 c 0.02398,0 0.034483,0.0605 0.0625,0.0625 C 4.964505,4.53125 4.983973,4.496 5,4.5 5.04202,4.511 5.071268,4.5938 5.03125,4.625 4.99825,4.635 4.992713,4.58975 4.96875,4.59375 4.900754,4.60575 4.8634955,4.754 4.8125,4.75 4.764485,4.74 4.732228,4.62875 4.78125,4.59375 c 0.0011,-0.03 -0.00204,-0.0315 0,-0.0625 0.015015,-0.018 0.053732,-0.0655 0.09375,-0.0625 z M 4.625,4.5 c 0.014025,0 0.026245,-0.01 0.03125,0 C 4.64927,4.553 4.634708,4.56875 4.59375,4.59375 4.522756,4.63675 4.460501,4.68975 4.4375,4.78125 4.43051,4.80825 4.3464955,4.8817 4.3125,4.875 4.233504,4.858 4.357015,4.7104 4.375,4.6875 4.39502,4.6625 4.414526,4.654 4.4375,4.625 4.46049,4.597 4.478055,4.54725 4.5,4.53125 4.52398,4.51425 4.5830075,4.498 4.625,4.5 Z m 6.78125,0.15625 c 0.07899,-0.01 0.120252,0.0774 0.15625,0.125 0.02998,0.039 0.107246,0.0978 0.15625,0.125 0.028,0.015 0.06275,0.0485 0.09375,0.0625 0.06499,0.029 0.184496,0.1235 0.1875,0.1875 0.0011,0.032 -0.03626,0.06375 -0.03125,0.09375 0.04901,0.01 0.09275,-0.0758 0.09375,-0.125 0.09191,0.1300064 0.170602,0.2676596 0.25,0.40625 0.0375,0.065457 0.09044,0.1200457 0.125,0.1875 -0.04411,0.013 -0.05541,0.0195 -0.0625,0.0625 -0.01001,0.056 0.02149,0.14635 -0.0625,0.15625 -0.05297,0.01 -0.11451,-0.0455 -0.1875,-0.0625 -0.02998,-0.01 -0.06975,0.01 -0.09375,0 C 11.97625,5.857 11.9845,5.7833 11.9375,5.75 11.91049,5.731 11.824253,5.6925 11.78125,5.6875 c -0.02701,0 -0.03452,0.01 -0.0625,0 -0.03399,-0.01 -0.097,0.014 -0.125,0 C 11.56674,5.6705 11.50701,5.61675 11.5,5.59375 11.489,5.55675 11.59175,5.5313 11.59375,5.5 11.59595,5.476 11.5675,5.44325 11.5625,5.40625 c -0.0038,-0.022 0.0049,-0.0475 0,-0.0625 -0.007,-0.026 -0.05276,-0.03025 -0.09375,-0.03125 -0.03603,0 -0.06276,0 -0.09375,0 -0.044,0 -0.132506,-0.004 -0.1875,0 -0.033,0 -0.06275,-0.003 -0.09375,0 -0.08699,0.01 -0.150753,-0.01 -0.21875,0 -0.04901,0 -0.141504,0.0415 -0.1875,0.0625 -0.02299,0.011 -0.03249,0.01625 -0.0625,0.03125 -0.01397,0.01 -0.04446,0.02325 -0.0625,0.03125 -0.02799,0.013 -0.06675,0.0545 -0.09375,0.0625 -0.03899,0.01 -0.08526,-0.01 -0.15625,0 -0.05098,0 -0.123999,-0.03275 -0.125,-0.09375 -0.0011,-0.093 0.162011,-0.0455 0.25,-0.0625 0.033,-0.01 0.05373,-0.0385 0.09375,-0.0625 0.01903,-0.011 0.01326,-0.01925 0.03125,-0.03125 0.02997,-0.021 0.08875,-0.06975 0.09375,-0.09375 0.0038,-0.022 -0.003,-0.0455 0,-0.0625 0.0038,-0.021 0.0355,-0.0345 0.0625,-0.0625 0.04202,-0.042 0.073,-0.0978 0.125,-0.125 0.03498,-0.018 0.07775,-0.0335 0.09375,-0.0625 0.0038,-0.032 -0.0011,-0.0325 0,-0.0625 C 10.9595,4.76125 10.98202,4.754 11,4.75 c 0.05401,-0.012 0.09326,0.003 0.15625,0 0.027,0 0.06475,0.013 0.09375,0 0.02398,-0.016 0.0385,-0.0505 0.0625,-0.0625 0.02601,-0.014 0.06172,-0.02925 0.09375,-0.03125 z M 11.96875,5.25 h -0.125 c -0.044,0 -0.099,-0.023 -0.125,0 0.03702,0.06 0.104505,0.07875 0.1875,0.09375 0.02998,-0.022 0.04853,-0.05545 0.0625,-0.09375 z M 5.125,4.6875 h 0.09375 c 0.025025,0 0.052501,-0.01 0.0625,0 C 5.265245,4.7535 5.114497,4.74275 5.0625,4.71875 5.06525,4.69375 5.092968,4.6915 5.125,4.6875 Z M 4.90625,4.8125 C 4.8625672,4.8442816 4.8193312,4.8845833 4.75,4.90625 4.711995,4.91825 4.663252,4.917 4.65625,4.875 4.64822,4.823 4.715988,4.84875 4.75,4.84375 4.794,4.83375 4.855254,4.8145 4.90625,4.8125 Z m 6.5,0 c -0.033,0.011 -0.04901,0.08375 0,0.09375 0.02299,-0.014 0.0373,-0.05075 0.03125,-0.09375 -0.01298,-0.014 -0.02129,-0.01 -0.03125,0 z m -0.0625,0.15625 c 0.0011,0.056 0.011,0.10765 0,0.15625 0.03201,0.062 0.109006,0.01075 0.125,-0.03125 0.01903,-0.104 -0.0145,-0.138 -0.0625,-0.125 -0.016,0.01 -0.04556,-0.013 -0.0625,0 z M 3.0625,7.3125 C 3.118864,7.3635 3.1512925,7.43535 3.21875,7.46875 3.243775,7.48175 3.280501,7.492 3.3125,7.5 c 0.026015,0.01 0.037513,-0.008 0.0625,0 0.05302,0.018 0.1142575,0.0435 0.15625,0.0625 0.063998,0.028 0.1325,0.12425 0.1875,0.15625 0.00275,0.032 -0.01001,0.06975 0,0.09375 C 3.744765,7.8475 3.770497,7.88225 3.8125,7.90625 3.863485,7.93425 3.8895065,7.9778 3.9375,8 3.954495,8.01 3.973963,7.99 4,8 4.065994,8.02 4.099253,8.11055 4.15625,8.09375 4.193265,8.08275 4.181505,8.036 4.1875,8 4.212525,7.973 4.242222,7.9375 4.28125,7.9375 c 0.06199,0 0.070749,0.09565 0.09375,0.15625 0.01298,0.034 0.053535,0.05775 0.0625,0.09375 0.015015,0.062 0.01298,0.24425 0,0.28125 -0.016005,0.046 -0.087001,0.04345 -0.125,0.09375 -0.017985,0.024 -0.01728,0.07675 -0.03125,0.09375 -0.02398,0.029 -0.044477,0.0345 -0.0625,0.0625 -0.01001,0.015 -0.022285,0.0415 -0.03125,0.0625 -0.03003,0.064 -0.087514,0.1105 -0.0625,0.1875 0.01001,0.031 0.0625,0.05675 0.0625,0.09375 0,0.044 -0.086749,0.0768 -0.09375,0.125 C 4.0888,9.2225 4.114055,9.2658 4.125,9.3125 4.13298,9.3475 4.197751,9.38325 4.21875,9.40625 4.25373,9.44525 4.280501,9.513 4.3125,9.5625 4.375491,9.6595 4.406765,9.78 4.46875,9.875 c 0.033,0.049 0.103,0.0734 0.125,0.125 0.011,0.026 -0.01001,0.06975 0,0.09375 0.03597,0.081 0.200257,0.17885 0.28125,0.21875 0.038005,0.019 0.090009,0.01125 0.125,0.03125 0.05302,0.03 0.160506,0.10965 0.1875,0.15625 0.02398,0.042 0.01926,0.15185 0.03125,0.21875 0.015015,0.088 -0.00385,0.1549 0,0.25 0.00275,0.052 0.03125,0.0734 0.03125,0.125 0,0.018 0.0011,0.07475 0,0.09375 -0.0011,0.062 0.00495,0.1245 0,0.1875 -0.00275,0.034 -0.0022,0.06475 0,0.09375 0.00275,0.031 0.02927,0.0345 0.03125,0.0625 C 5.28345,11.56025 5.246975,11.602 5.25,11.625 5.25699,11.688 5.300499,11.72315 5.3125,11.78125 5.32251,11.82725 5.349745,11.945 5.34375,12 5.3399,12.029 5.316515,12.06075 5.3125,12.09375 c -0.00275,0.026 0.00385,0.0385 0,0.0625 -0.00275,0.023 0.00594,0.0435 0,0.0625 C 5.280654,12.19827 5.250095,12.17743 5.21875,12.15625 4.9527483,11.976543 4.6949555,11.757456 4.46875,11.53125 4.4381566,11.500657 4.4047959,11.468874 4.375,11.4375 4.1944191,11.247353 4.0241375,11.029182 3.875,10.8125 3.8614865,10.792866 3.8569888,10.769835 3.84375,10.75 3.6707036,10.490733 3.5290643,10.227866 3.40625,9.9375 3.3973945,9.9165633 3.3835772,9.8960813 3.375,9.875 3.2696226,9.6160011 3.1860736,9.3410185 3.125,9.0625 3.1134736,9.0099352 3.1036081,8.9594198 3.09375,8.90625 3.0689879,8.7726956 3.0451686,8.6370542 3.03125,8.5 3.01418,8.3319146 3,8.172589 3,8 3,7.7623582 3.030436,7.5413039 3.0625,7.3125 Z M 5,7.84375 c 0.048015,-0.022 0.038995,0.0555 0,0.0625 -0.037015,0.01 -0.03597,-0.0445 0,-0.0625 z"
       style="color:#000000;fill:#042d3e;fill-opacity:1;fill-rule:nonzero;stroke-width:1.06931257"
       inkscape:connector-curvature="0" />
  </g>
  <g
     style="stroke-width:0.65931237"
     id="g5240"
     transform="matrix(1.5167319,0,0,1.5167319,-3.9009122,139.90699)">
    <circle
       cx="147.52542"
       cy="53.423729"
       r="23.593222"
       id="circle5229"
       style="opacity:1;fill:#005c94;fill-opacity:1;stroke:none;stroke-width:5;stroke-linecap:round;stroke-linejoin:bevel;stroke-miterlimit:4;stroke-dasharray:none;stroke-dashoffset:0;stroke-opacity:1"
       transform="matrix(0.6593123,0,0,0.6593123,2.5719194,-92.2424)" />
    <circle
       style="opacity:1;fill:url(#linearGradient5260);fill-opacity:1;stroke:none;stroke-width:5;stroke-linecap:round;stroke-linejoin:bevel;stroke-miterlimit:4;stroke-dasharray:none;stroke-dashoffset:0;stroke-opacity:1"
       id="path5192"
       r="20.067797"
       cy="53.423729"
       cx="147.52542"
       transform="matrix(0.6593123,0,0,0.6593123,2.5719194,-92.2424)" />
    <circle
       r="3.2359123"
       cy="-63.891079"
       cx="103.38141"
       id="path5196"
       style="opacity:1;fill:#042d3e;fill-opacity:1;stroke:none;stroke-width:3.29656172;stroke-linecap:round;stroke-linejoin:bevel;stroke-miterlimit:4;stroke-dasharray:none;stroke-dashoffset:0;stroke-opacity:1" />
    <circle
       style="opacity:1;fill:#042d3e;fill-opacity:1;stroke:none;stroke-width:3.29656172;stroke-linecap:round;stroke-linejoin:bevel;stroke-miterlimit:4;stroke-dasharray:none;stroke-dashoffset:0;stroke-opacity:1"
       id="circle5198"
       cx="93.841461"
       cy="-56.79604"
       r="3.2359123" />
    <circle
       r="3.2359123"
       cy="-50.420094"
       cx="104.5799"
       id="circle5200"
       style="opacity:1;fill:#042d3e;fill-opacity:1;stroke:none;stroke-width:3.29656172;stroke-linecap:round;stroke-linejoin:bevel;stroke-miterlimit:4;stroke-dasharray:none;stroke-dashoffset:0;stroke-opacity:1" />
    <rect
       inkscape:transform-center-y="1.0079551"
       inkscape:transform-center-x="-1.1077281"
       transform="rotate(-34.675344)"
       ry="0"
       y="5.2116098"
       x="108.38136"
       height="2.6833048"
       width="14.815782"
       id="rect5208"
       style="opacity:1;fill:#042d3e;fill-opacity:1;stroke:none;stroke-width:3.29656172;stroke-linecap:round;stroke-linejoin:bevel;stroke-miterlimit:4;stroke-dasharray:none;stroke-dashoffset:0;stroke-opacity:1" />
    <rect
       style="opacity:1;fill:#042d3e;fill-opacity:1;stroke:none;stroke-width:3.29656172;stroke-linecap:round;stroke-linejoin:bevel;stroke-miterlimit:4;stroke-dasharray:none;stroke-dashoffset:0;stroke-opacity:1"
       id="rect5210"
       width="14.815782"
       height="2.6833048"
       x="50.184284"
       y="95.854942"
       ry="0"
       transform="matrix(0.85693025,0.51543238,0.51543238,-0.85693025,0,0)"
       inkscape:transform-center-x="-1.0413482"
       inkscape:transform-center-y="-1.0764122" />
  </g>
  <circle
     style="opacity:1;fill:url(#linearGradient5258);fill-opacity:1;stroke:none;stroke-width:5;stroke-linecap:round;stroke-linejoin:bevel;stroke-miterlimit:4;stroke-dasharray:none;stroke-dashoffset:0;stroke-opacity:1"
     id="circle5244"
     r="5.2476144"
     cy="6.8430228"
     cx="43.776066" />
  <g
     id="g4547">
    <path
       style="color:#000000;font-style:normal;font-variant:normal;font-weight:normal;font-stretch:normal;font-size:medium;line-height:normal;font-family:sans-serif;font-variant-ligatures:normal;font-variant-position:normal;font-variant-caps:normal;font-variant-numeric:normal;font-variant-alternates:normal;font-feature-settings:normal;text-indent:0;text-align:start;text-decoration:none;text-decoration-line:none;text-decoration-style:solid;text-decoration-color:#000000;letter-spacing:normal;word-spacing:normal;text-transform:none;writing-mode:lr-tb;direction:ltr;text-orientation:mixed;dominant-baseline:auto;baseline-shift:baseline;text-anchor:start;white-space:normal;shape-padding:0;clip-rule:nonzero;display:inline;overflow:visible;visibility:visible;opacity:1;isolation:auto;mix-blend-mode:normal;color-interpolation:sRGB;color-interpolation-filters:linearRGB;solid-color:#000000;solid-opacity:1;vector-effect:none;fill:#0c84b5;fill-opacity:1;fill-rule:evenodd;stroke:none;stroke-width:1px;stroke-linecap:butt;stroke-linejoin:miter;stroke-miterlimit:4;stroke-dasharray:none;stroke-dashoffset:0;stroke-opacity:1;color-rendering:auto;image-rendering:auto;shape-rendering:auto;text-rendering:auto;enable-background:accumulate"
       d="M 9.6053083,7.421341 H 6.3946917 v 6.561309 h 3.2106166 z"
       id="path5135"
       inkscape:connector-curvature="0" />
    <path
       inkscape:connector-curvature="0"
       id="path5116"
       d="m 2.0413795,12.87726 v 1.964191 H 13.95862 V 12.87726 Z"
       style="color:#000000;font-style:normal;font-variant:normal;font-weight:normal;font-stretch:normal;font-size:medium;line-height:normal;font-family:sans-serif;font-variant-ligatures:normal;font-variant-position:normal;font-variant-caps:normal;font-variant-numeric:normal;font-variant-alternates:normal;font-feature-settings:normal;text-indent:0;text-align:start;text-decoration:none;text-decoration-line:none;text-decoration-style:solid;text-decoration-color:#000000;letter-spacing:normal;word-spacing:normal;text-transform:none;writing-mode:lr-tb;direction:ltr;text-orientation:mixed;dominant-baseline:auto;baseline-shift:baseline;text-anchor:start;white-space:normal;shape-padding:0;clip-rule:nonzero;display:inline;overflow:visible;visibility:visible;opacity:1;isolation:auto;mix-blend-mode:normal;color-interpolation:sRGB;color-interpolation-filters:linearRGB;solid-color:#000000;solid-opacity:1;vector-effect:none;fill:#0c84b5;fill-opacity:1;fill-rule:evenodd;stroke:none;stroke-width:1px;stroke-linecap:butt;stroke-linejoin:miter;stroke-miterlimit:4;stroke-dasharray:none;stroke-dashoffset:0;stroke-opacity:1;color-rendering:auto;image-rendering:auto;shape-rendering:auto;text-rendering:auto;enable-background:accumulate" />
    <g
       style="stroke-width:1.14246452"
       transform="matrix(0.87530069,0,0,0.87530069,0.99759457,0.77966089)"
       id="g5340">
      <circle
         style="opacity:1;fill:url(#linearGradient5188);fill-opacity:1;stroke:none;stroke-width:5.71232271;stroke-linecap:round;stroke-linejoin:bevel;stroke-miterlimit:4;stroke-dasharray:none;stroke-dashoffset:0;stroke-opacity:1"
         id="path5128"
         cx="8.000001"
         cy="6.2523274"
         r="6.1510453" />
      <path
         inkscape:connector-curvature="0"
         style="opacity:1;fill:url(#linearGradient5336);fill-opacity:1;stroke:none;stroke-width:5.71232271;stroke-linecap:round;stroke-linejoin:bevel;stroke-miterlimit:4;stroke-dasharray:none;stroke-dashoffset:0;stroke-opacity:1"
         d="M 8.7209945,2.3011748 A 1.1857961,1.1857961 0 0 0 7.5363533,3.485816 1.1857961,1.1857961 0 0 0 7.5976589,3.8608622 L 6.1515672,5.054519 A 1.539854,1.539854 0 0 0 5.286076,4.7876591 1.539854,1.539854 0 0 0 3.7462228,6.3275123 1.539854,1.539854 0 0 0 5.286076,7.8673656 1.539854,1.539854 0 0 0 6.1659921,7.587884 l 1.8499876,0.9141752 a 1.8164619,1.8164619 0 0 0 -0.00361,0.08114 A 1.8164619,1.8164619 0 0 0 9.8280979,10.398927 1.8164619,1.8164619 0 0 0 11.645629,8.5831994 1.8164619,1.8164619 0 0 0 9.8280979,6.7656677 1.8164619,1.8164619 0 0 0 8.5911674,7.2543096 L 6.8241261,6.3816056 a 1.539854,1.539854 0 0 0 0.0018,-0.054093 A 1.539854,1.539854 0 0 0 6.6816777,5.6801968 L 8.1097383,4.4991618 A 1.1857961,1.1857961 0 0 0 8.7209916,4.67226 1.1857961,1.1857961 0 0 0 9.9074388,3.485816 1.1857961,1.1857961 0 0 0 8.7209945,2.3011748 Z"
         id="circle5246" />
    </g>
  </g>
  <path
     cx="147.52542"
     cy="53.423729"
     r="20.067797"
     id="path5227"
     style="opacity:1;fill:url(#linearGradient5225);fill-opacity:1;stroke:none;stroke-width:5;stroke-linecap:round;stroke-linejoin:bevel;stroke-miterlimit:4;stroke-dasharray:none;stroke-dashoffset:0;stroke-opacity:1" />
  <g
     style="stroke-width:0.92178446"
     transform="matrix(1.0848523,0,0,1.0848523,-43.475591,-19.575716)"
     id="g5322">
    <circle
       r="1.1839899"
       cy="5.3275666"
       cx="24.036898"
       id="circle5312"
       style="opacity:1;fill:#042d3e;fill-opacity:1;stroke:none;stroke-width:4.60892248;stroke-linecap:round;stroke-linejoin:bevel;stroke-miterlimit:4;stroke-dasharray:none;stroke-dashoffset:0;stroke-opacity:1" />
    <circle
       style="opacity:1;fill:#042d3e;fill-opacity:1;stroke:none;stroke-width:4.60892248;stroke-linecap:round;stroke-linejoin:bevel;stroke-miterlimit:4;stroke-dasharray:none;stroke-dashoffset:0;stroke-opacity:1"
       id="circle5314"
       cx="20.606712"
       cy="8.1636734"
       r="1.5375085" />
    <circle
       r="1.813695"
       cy="10.416293"
       cx="25.141945"
       id="circle5316"
       style="opacity:1;fill:#042d3e;fill-opacity:1;stroke:none;stroke-width:4.60892248;stroke-linecap:round;stroke-linejoin:bevel;stroke-miterlimit:4;stroke-dasharray:none;stroke-dashoffset:0;stroke-opacity:1" />
    <rect
       inkscape:transform-center-y="0.90985745"
       inkscape:transform-center-x="-1.1896187"
       transform="rotate(-39.565465)"
       ry="0"
       y="18.990376"
       x="10.919638"
       height="0.81821734"
       width="4.5030956"
       id="rect5318"
       style="opacity:1;fill:#042d3e;fill-opacity:1;stroke:none;stroke-width:4.60892248;stroke-linecap:round;stroke-linejoin:bevel;stroke-miterlimit:4;stroke-dasharray:none;stroke-dashoffset:0;stroke-opacity:1" />
    <rect
       style="opacity:1;fill:#042d3e;fill-opacity:1;stroke:none;stroke-width:4.60892248;stroke-linecap:round;stroke-linejoin:bevel;stroke-miterlimit:4;stroke-dasharray:none;stroke-dashoffset:0;stroke-opacity:1"
       id="rect5320"
       width="6.000896"
       height="1.371309"
       x="21.565586"
       y="1.0673215"
       ry="0"
       transform="matrix(0.89656578,0.44291061,0.44291061,-0.89656578,0,0)"
       inkscape:transform-center-x="-0.94890726"
       inkscape:transform-center-y="-1.1587255" />
  </g>
  <rect
     style="opacity:0.5;fill:none;stroke:url(#linearGradient3079-9);stroke-width:1;stroke-linecap:round;stroke-linejoin:round;stroke-miterlimit:4;stroke-dasharray:none;stroke-dashoffset:0;stroke-opacity:1"
     id="rect6741-0-3"
     y="21.62195"
     x="-0.13078992"
     height="11"
     width="11" />
  <g
     id="g4843"
     transform="translate(48.181714,20.041706)">
    <path
       id="path5135-5"
       d="m -44.417969,6.6464844 v 5.4570316 h -4.353515 v 1.96289 h 11.917968 v -1.96289 h -4.353515 V 6.6464844 Z"
       style="color:#000000;font-style:normal;font-variant:normal;font-weight:normal;font-stretch:normal;font-size:medium;line-height:normal;font-family:sans-serif;font-variant-ligatures:normal;font-variant-position:normal;font-variant-caps:normal;font-variant-numeric:normal;font-variant-alternates:normal;font-feature-settings:normal;text-indent:0;text-align:start;text-decoration:none;text-decoration-line:none;text-decoration-style:solid;text-decoration-color:#000000;letter-spacing:normal;word-spacing:normal;text-transform:none;writing-mode:lr-tb;direction:ltr;text-orientation:mixed;dominant-baseline:auto;baseline-shift:baseline;text-anchor:start;white-space:normal;shape-padding:0;clip-rule:nonzero;display:inline;overflow:visible;visibility:visible;opacity:1;isolation:auto;mix-blend-mode:normal;color-interpolation:sRGB;color-interpolation-filters:linearRGB;solid-color:#000000;solid-opacity:1;vector-effect:none;fill:url(#linearGradient4595);fill-opacity:1;fill-rule:evenodd;stroke:none;stroke-width:1px;stroke-linecap:butt;stroke-linejoin:miter;stroke-miterlimit:4;stroke-dasharray:none;stroke-dashoffset:0;stroke-opacity:1;color-rendering:auto;image-rendering:auto;shape-rendering:auto;text-rendering:auto;enable-background:accumulate"
       inkscape:connector-curvature="0" />
    <circle
       r="5.3840141"
       cy="5.4780984"
       cx="-42.812862"
       id="path5128-3"
       style="opacity:1;fill:url(#radialGradient4582);fill-opacity:1;stroke:none;stroke-width:5;stroke-linecap:round;stroke-linejoin:bevel;stroke-miterlimit:4;stroke-dasharray:none;stroke-dashoffset:0;stroke-opacity:1" />
    <path
       id="circle5246-5"
       d="m -42.181778,2.0196517 a 1.0379281,1.0379281 0 0 0 -1.036917,1.0369173 1.0379281,1.0379281 0 0 0 0.05366,0.3282781 L -44.4308,4.4296558 a 1.3478353,1.3478353 0 0 0 -0.757566,-0.2335827 1.3478353,1.3478353 0 0 0 -1.347834,1.3478346 1.3478353,1.3478353 0 0 0 1.347834,1.3478346 1.3478353,1.3478353 0 0 0 0.770192,-0.2446304 l 1.619295,0.8001782 a 1.5899504,1.5899504 0 0 0 -0.0032,0.071022 1.5899504,1.5899504 0 0 0 1.589308,1.5893078 1.5899504,1.5899504 0 0 0 1.590887,-1.5893076 1.5899504,1.5899504 0 0 0 -1.590887,-1.5908868 1.5899504,1.5899504 0 0 0 -1.082686,0.4277086 l -1.546692,-0.7638784 a 1.3478353,1.3478353 0 0 0 0.0016,-0.047348 1.3478353,1.3478353 0 0 0 -0.12626,-0.5665959 l 1.249982,-1.0337608 a 1.0379281,1.0379281 0 0 0 0.53503,0.151513 1.0379281,1.0379281 0 0 0 1.038499,-1.0384952 1.0379281,1.0379281 0 0 0 -1.038496,-1.0369173 z"
       style="opacity:1;fill:url(#linearGradient5336-3);fill-opacity:1;stroke:none;stroke-width:5;stroke-linecap:round;stroke-linejoin:bevel;stroke-miterlimit:4;stroke-dasharray:none;stroke-dashoffset:0;stroke-opacity:1"
       inkscape:connector-curvature="0" />
    <path
       sodipodi:nodetypes="ccccccccccccccccccccc"
       inkscape:connector-curvature="0"
       style="opacity:0.28500001;fill:url(#linearGradient4601);fill-opacity:1;stroke:none;stroke-width:5;stroke-linecap:round;stroke-linejoin:bevel;stroke-miterlimit:4;stroke-dasharray:none;stroke-dashoffset:0;stroke-opacity:1"
       d="m -42.136158,1.7584103 c -0.716512,6.981e-4 -1.297186,0.581372 -1.297883,1.2978841 1.54e-4,0.1396863 0.02284,0.2784336 0.06717,0.4108978 l -1.021209,0.7671675 c -0.279621,-0.1903082 -0.609989,-0.2921719 -0.948227,-0.2923698 -0.931733,9e-7 -1.687051,0.7553194 -1.687051,1.6870519 0,0.9317325 0.755318,1.6870509 1.687051,1.6870518 0.345098,-0.00106 0.697495,-0.2034988 0.979958,-0.4017624 l 1.357687,0.6241082 c -0.002,0.029599 -0.0033,0.059239 -0.004,0.088897 4.44e-4,1.098475 0.890823,1.988854 1.989298,1.9892979 1.099247,6.478e-4 1.990831,-0.8900507 1.991275,-1.9892977 6.48e-4,-1.100019 -0.891256,-1.9919227 -1.991275,-1.9912743 -0.503158,7.198e-4 -0.987367,0.1920037 -1.355172,0.5353524 l -1.346449,-0.6423823 c 0.05236,-0.2229121 -0.01528,-0.4866557 -0.09233,-0.6091843 l 1.001453,-0.7533391 c 0.201824,0.1229485 0.433362,0.1885168 0.669684,0.1896451 0.718057,3.951e-4 1.300256,-0.5818025 1.299864,-1.2998592 -6.98e-4,-0.7172842 -0.582577,-1.2982775 -1.299861,-1.2978842 z"
       id="path4597" />
  </g>
</svg>
