<?xml version="1.0" encoding="UTF-8" standalone="no"?>
<svg
   xmlns:dc="http://purl.org/dc/elements/1.1/"
   xmlns:cc="http://creativecommons.org/ns#"
   xmlns:rdf="http://www.w3.org/1999/02/22-rdf-syntax-ns#"
   xmlns:svg="http://www.w3.org/2000/svg"
   xmlns="http://www.w3.org/2000/svg"
   xmlns:sodipodi="http://sodipodi.sourceforge.net/DTD/sodipodi-0.dtd"
   xmlns:inkscape="http://www.inkscape.org/namespaces/inkscape"
   width="22"
   height="22"
   version="1"
   id="svg18"
   sodipodi:docname="application-pdf.svg"
   inkscape:version="0.92.1 r15371">
  <metadata
     id="metadata24">
    <rdf:RDF>
      <cc:Work
         rdf:about="">
        <dc:format>image/svg+xml</dc:format>
        <dc:type
           rdf:resource="http://purl.org/dc/dcmitype/StillImage" />
      </cc:Work>
    </rdf:RDF>
  </metadata>
  <defs
     id="defs22" />
  <sodipodi:namedview
     pagecolor="#ffffff"
     bordercolor="#666666"
     borderopacity="1"
     objecttolerance="10"
     gridtolerance="10"
     guidetolerance="10"
     inkscape:pageopacity="0"
     inkscape:pageshadow="2"
     inkscape:window-width="1546"
     inkscape:window-height="836"
     id="namedview20"
     showgrid="false"
     inkscape:zoom="15.170655"
     inkscape:cx="11.683567"
     inkscape:cy="11.239918"
     inkscape:window-x="2383"
     inkscape:window-y="291"
     inkscape:window-maximized="0"
     inkscape:current-layer="svg18" />
  <path
     inkscape:connector-curvature="0"
     id="path2"
     d="m 4,1.5 c -0.554,0 -1,0.446 -1,1 v 18 c 0,0.554 0.446,1 1,1 h 14 c 0.554,0 1,-0.446 1,-1 V 7.5 L 13.5,7 13,1.5 Z"
     style="opacity:0.2" />
  <path
     inkscape:connector-curvature="0"
     id="path4"
     d="M 4,1 C 3.446,1 3,1.446 3,2 v 18 c 0,0.554 0.446,1 1,1 h 14 c 0.554,0 1,-0.446 1,-1 V 7 L 13.5,6.5 13,1 Z"
     style="fill:#f1c65d;fill-opacity:1" />
  <path
     inkscape:connector-curvature="0"
     id="path6"
     d="M 4,1 C 3.446,1 3,1.446 3,2 v 0.5 c 0,-0.554 0.446,-1 1,-1 h 9 L 18.5,7 H 19 L 13,1 Z"
     style="opacity:0.2;fill:#ffffff" />
  <path
     inkscape:connector-curvature="0"
     id="path8"
     d="m 13,1.5 v 5 c 0,0.5523 0.44772,1 1,1 h 5 z"
     style="opacity:0.2" />
  <path
     inkscape:connector-curvature="0"
     id="path10"
     d="m 13,1 v 5 c 0,0.5523 0.44772,1 1,1 h 5 z"
     style="fill:#ed8b13;fill-opacity:1" />
  <path
     style="opacity:0.2;fill:#ffffff;stroke-width:1"
     d="m -17.738171,1.1876248 c -0.553706,0 -0.99947,0.4457638 -0.99947,0.9994704 v 0.7995762 c 0,-0.5537065 0.445764,-0.9994703 0.99947,-0.9994703 h 8.5954451 V 1.1876248 Z"
     id="path14-3"
     inkscape:connector-curvature="0"
     sodipodi:nodetypes="sscsccs" />
  <g
     id="g4581"
     transform="matrix(0.99005034,0,0,0.99005034,21.922445,-0.17580847)"
     style="stroke-width:1.0100497">
    <g
       style="stroke-width:1.17886364"
       transform="matrix(0.85679931,0,0,0.85679931,-24.63504,-2.2395723)"
       id="g4585">
      <path
         style="opacity:0.85900005;fill:#8a6d4a;fill-opacity:1;stroke:none;stroke-width:5.89431906;stroke-linecap:round;stroke-linejoin:bevel;stroke-miterlimit:4;stroke-dasharray:none;stroke-dashoffset:0;stroke-opacity:1"
         d="m 15.244742,4 h 1.817708 v 11.351256 c 0.08841,1.919835 -0.01321,1.821698 -1.817708,1.821698 z"
         id="rect4572"
         inkscape:connector-curvature="0"
         sodipodi:nodetypes="ccccc" />
      <path
         sodipodi:nodetypes="ccccc"
         inkscape:connector-curvature="0"
         id="path4575"
         d="m 15.244742,4 h -1.817708 v 11.351256 c -0.08841,1.919835 0.01321,1.821698 1.817708,1.821698 z"
         style="opacity:0.85900005;fill:#c39b6b;fill-opacity:1;stroke:none;stroke-width:5.89431906;stroke-linecap:round;stroke-linejoin:bevel;stroke-miterlimit:4;stroke-dasharray:none;stroke-dashoffset:0;stroke-opacity:1" />
      <path
         style="opacity:1;fill:#7f8c8d;fill-opacity:1;stroke:none;stroke-width:5.89431906;stroke-linecap:round;stroke-linejoin:bevel;stroke-miterlimit:4;stroke-dasharray:none;stroke-dashoffset:0;stroke-opacity:1"
         d="m 13.159727,4 v 11.923829 c 0,1.148499 0.92572,2.072266 2.074218,2.072266 1.1485,0 2.072266,-0.923767 2.072266,-2.072266 V 4 h -1.013672 v 2.203125 h -2.11914 V 4 Z m 1.013672,3.2207031 h 2.11914 v 1.0585938 h -2.11914 z m 0,2.0761719 h 2.11914 v 1.058594 h -2.11914 z m 0,2.076173 h 2.11914 v 1.058594 h -2.11914 z m 0,2.076172 h 2.11914 v 1.058594 h -2.11914 z m 0,2.076172 h 2.11914 v 0.166015 c 0,0.586623 -0.471971,1.058594 -1.058594,1.058594 -0.586623,0 -1.060546,-0.471971 -1.060546,-1.058594 z"
         id="path4522"
         inkscape:connector-curvature="0" />
    </g>
    <g
       style="stroke-width:1.00010586"
       transform="matrix(1.0099427,0,0,1.0099427,-30.133193,-4.7682452)"
       id="g4593">
      <path
         style="opacity:1;fill:#8a6d4a;fill-opacity:1;stroke:none;stroke-width:5.00053024;stroke-linecap:round;stroke-linejoin:bevel;stroke-miterlimit:4;stroke-dasharray:none;stroke-dashoffset:0;stroke-opacity:1"
         d="m 18.36814,16.763472 c -1.185637,0 -2.141291,0.953637 -2.141291,2.139274 v 4.534618 c 0,1.185637 0.955654,2.139275 2.141291,2.139275 1.185637,0 2.139275,-0.953638 2.139275,-2.139275 v -4.534618 c 0,-1.185637 -0.953638,-2.139274 -2.139275,-2.139274 z m 0,0.985962 a 1.0394246,1.0630567 0 0 1 1.038385,1.06258 1.0394246,1.0630567 0 0 1 -1.038385,1.06258 1.0394246,1.0630567 0 0 1 -1.040401,-1.06258 1.0394246,1.0630567 0 0 1 1.040401,-1.06258 z m 0,3.451874 c 0.605591,0 1.092824,0.487232 1.092824,1.092824 v 0.903295 c 0,0.605591 -0.487233,1.092824 -1.092824,1.092824 -0.605592,0 -1.094841,-0.487233 -1.094841,-1.092824 v -0.903295 c 0,-0.605592 0.489249,-1.092824 1.094841,-1.092824 z"
         id="rect4510"
         inkscape:connector-curvature="0" />
      <path
         inkscape:connector-curvature="0"
         id="path4587"
         d="m 18.36814,16.101101 c -1.185637,0 -2.141291,0.953637 -2.141291,2.139274 v 4.534618 c 0,1.185637 0.955654,2.139275 2.141291,2.139275 1.185637,0 2.139275,-0.953638 2.139275,-2.139275 v -4.534618 c 0,-1.185637 -0.953638,-2.139274 -2.139275,-2.139274 z m 0,0.985962 a 1.0394246,1.0630567 0 0 1 1.038385,1.06258 1.0394246,1.0630567 0 0 1 -1.038385,1.06258 1.0394246,1.0630567 0 0 1 -1.040401,-1.06258 1.0394246,1.0630567 0 0 1 1.040401,-1.06258 z m 0,3.451874 c 0.605591,0 1.092824,0.487232 1.092824,1.092824 v 0.903295 c 0,0.605591 -0.487233,1.092824 -1.092824,1.092824 -0.605592,0 -1.094841,-0.487233 -1.094841,-1.092824 v -0.903295 c 0,-0.605592 0.489249,-1.092824 1.094841,-1.092824 z"
         style="opacity:1;fill:#efefef;fill-opacity:1;stroke:none;stroke-width:5.00053024;stroke-linecap:round;stroke-linejoin:bevel;stroke-miterlimit:4;stroke-dasharray:none;stroke-dashoffset:0;stroke-opacity:1" />
    </g>
  </g>
</svg>
