<?xml version="1.0" encoding="UTF-8" standalone="no"?>
<svg
   xmlns:dc="http://purl.org/dc/elements/1.1/"
   xmlns:cc="http://creativecommons.org/ns#"
   xmlns:rdf="http://www.w3.org/1999/02/22-rdf-syntax-ns#"
   xmlns:svg="http://www.w3.org/2000/svg"
   xmlns="http://www.w3.org/2000/svg"
   xmlns:xlink="http://www.w3.org/1999/xlink"
   xmlns:sodipodi="http://sodipodi.sourceforge.net/DTD/sodipodi-0.dtd"
   xmlns:inkscape="http://www.inkscape.org/namespaces/inkscape"
   version="1.1"
   width="32"
   height="32"
   id="svg14288"
   sodipodi:docname="folder.svg"
   inkscape:version="0.92.1 r15371">
  <sodipodi:namedview
     pagecolor="#ffffff"
     bordercolor="#666666"
     borderopacity="1"
     objecttolerance="10"
     gridtolerance="10"
     guidetolerance="10"
     inkscape:pageopacity="0"
     inkscape:pageshadow="2"
     inkscape:window-width="1339"
     inkscape:window-height="655"
     id="namedview58"
     showgrid="false"
     inkscape:zoom="2.6074563"
     inkscape:cx="92.418736"
     inkscape:cy="-8.7588902"
     inkscape:window-x="2956"
     inkscape:window-y="461"
     inkscape:window-maximized="0"
     inkscape:current-layer="svg14288" />
  <defs
     id="defs14290">
    <linearGradient
       x1="27.557428"
       y1="7.162672"
       x2="27.557428"
       y2="21.386522"
       id="linearGradient5926"
       xlink:href="#linearGradient3454-2-5-0-3-4"
       gradientUnits="userSpaceOnUse"
       gradientTransform="matrix(0.89186139,0,0,1.0539115,3.1208294,5.412539)" />
    <linearGradient
       id="linearGradient3454-2-5-0-3-4">
      <stop
         id="stop3456-4-9-38-1-8"
         style="stop-color:#ffffff;stop-opacity:1"
         offset="0" />
      <stop
         id="stop3458-39-80-3-5-5"
         style="stop-color:#ffffff;stop-opacity:0.23529412"
         offset="0.0097359" />
      <stop
         id="stop3460-7-0-2-4-2"
         style="stop-color:#ffffff;stop-opacity:0.15686275"
         offset="0.99001008" />
      <stop
         id="stop3462-0-9-8-7-2"
         style="stop-color:#ffffff;stop-opacity:0.39215687"
         offset="1" />
    </linearGradient>
    <linearGradient
       x1="22.934725"
       y1="49.629246"
       x2="22.809399"
       y2="36.657963"
       id="linearGradient5922"
       xlink:href="#linearGradient6129-963-697-142-998-580-273-5"
       gradientUnits="userSpaceOnUse"
       gradientTransform="matrix(0.7467531,0,0,0.6554922,-1.9218906,1.167619)" />
    <linearGradient
       id="linearGradient6129-963-697-142-998-580-273-5">
      <stop
         id="stop2661-1"
         style="stop-color:#0a0a0a;stop-opacity:0.498"
         offset="0" />
      <stop
         id="stop2663-85"
         style="stop-color:#0a0a0a;stop-opacity:0"
         offset="1" />
    </linearGradient>
    <linearGradient
       x1="35.792694"
       y1="17.118193"
       x2="35.792694"
       y2="43.761127"
       id="linearGradient5915"
       xlink:href="#linearGradient4632-0-6-4-3-4"
       gradientUnits="userSpaceOnUse"
       gradientTransform="matrix(0.64444432,0,0,0.64285702,0.53351936,0.89285905)" />
    <linearGradient
       id="linearGradient4632-0-6-4-3-4">
      <stop
         id="stop4634-4-4-7-7-4"
         style="stop-color:#b4cee1;stop-opacity:1"
         offset="0" />
      <stop
         id="stop4636-3-1-5-1-3"
         style="stop-color:#5d9fcd;stop-opacity:1"
         offset="1" />
    </linearGradient>
    <linearGradient
       x1="302.85715"
       y1="366.64789"
       x2="302.85715"
       y2="609.50507"
       id="linearGradient5905"
       xlink:href="#linearGradient5048-585-0"
       gradientUnits="userSpaceOnUse"
       gradientTransform="matrix(0.05114282,0,0,0.01591575,-2.4899573,22.29927)" />
    <linearGradient
       id="linearGradient5048-585-0">
      <stop
         id="stop2667-18"
         style="stop-color:#000000;stop-opacity:0"
         offset="0" />
      <stop
         id="stop2669-9"
         style="stop-color:#000000;stop-opacity:1"
         offset="0.5" />
      <stop
         id="stop2671-33"
         style="stop-color:#000000;stop-opacity:0"
         offset="1" />
    </linearGradient>
    <radialGradient
       cx="605.71429"
       cy="486.64789"
       r="117.14286"
       fx="605.71429"
       fy="486.64789"
       id="radialGradient5907"
       xlink:href="#linearGradient5060-179-67"
       gradientUnits="userSpaceOnUse"
       gradientTransform="matrix(0.01983573,0,0,0.01591575,16.38765,22.29927)" />
    <linearGradient
       id="linearGradient5060-179-67">
      <stop
         id="stop2675-81"
         style="stop-color:#000000;stop-opacity:1"
         offset="0" />
      <stop
         id="stop2677-2"
         style="stop-color:#000000;stop-opacity:0"
         offset="1" />
    </linearGradient>
    <radialGradient
       cx="605.71429"
       cy="486.64789"
       r="117.14286"
       fx="605.71429"
       fy="486.64789"
       id="radialGradient5909"
       xlink:href="#linearGradient5060-820-4"
       gradientUnits="userSpaceOnUse"
       gradientTransform="matrix(-0.01983573,0,0,0.01591575,15.60139,22.29927)" />
    <linearGradient
       id="linearGradient5060-820-4">
      <stop
         id="stop2681-5"
         style="stop-color:#000000;stop-opacity:1"
         offset="0" />
      <stop
         id="stop2683-00"
         style="stop-color:#000000;stop-opacity:0"
         offset="1" />
    </linearGradient>
    <linearGradient
       x1="21.37039"
       y1="4.73244"
       x2="21.37039"
       y2="34.143417"
       id="linearGradient5903"
       xlink:href="#linearGradient4325"
       gradientUnits="userSpaceOnUse"
       gradientTransform="matrix(0.54383556,0,0,0.61466406,3.2688794,5.091139)" />
    <linearGradient
       id="linearGradient4325">
      <stop
         id="stop4327"
         style="stop-color:#ffffff;stop-opacity:1"
         offset="0" />
      <stop
         id="stop4329"
         style="stop-color:#ffffff;stop-opacity:0.23529412"
         offset="0.1106325" />
      <stop
         id="stop4331"
         style="stop-color:#ffffff;stop-opacity:0.15686275"
         offset="0.99001008" />
      <stop
         id="stop4333"
         style="stop-color:#ffffff;stop-opacity:0.39215687"
         offset="1" />
    </linearGradient>
    <linearGradient
       x1="62.988873"
       y1="13"
       x2="62.988873"
       y2="16"
       id="linearGradient5899"
       xlink:href="#linearGradient4646-7-4-3-5"
       gradientUnits="userSpaceOnUse"
       gradientTransform="matrix(0.61904762,0,0,0.61904762,-30.391811,1.428569)" />
    <linearGradient
       id="linearGradient4646-7-4-3-5">
      <stop
         id="stop4648-8-0-3-6"
         style="stop-color:#f9f9f9;stop-opacity:1"
         offset="0" />
      <stop
         id="stop4650-1-7-3-4"
         style="stop-color:#d8d8d8;stop-opacity:1"
         offset="1" />
    </linearGradient>
    <linearGradient
       id="linearGradient3104-8-8-97-4-6-11-5-5-0">
      <stop
         id="stop3106-5-4-3-5-0-2-1-0-6"
         style="stop-color:#000000;stop-opacity:0.32173914"
         offset="0" />
      <stop
         id="stop3108-4-3-7-8-2-0-7-9-1"
         style="stop-color:#000000;stop-opacity:0.27826086"
         offset="1" />
    </linearGradient>
    <linearGradient
       x1="-51.786404"
       y1="53.514328"
       x2="-51.786404"
       y2="3.6336823"
       id="linearGradient14236"
       xlink:href="#linearGradient3104-8-8-97-4-6-11-5-5-0"
       gradientUnits="userSpaceOnUse"
       gradientTransform="matrix(0.50703384,0,0,0.50300255,68.029219,1.329769)" />
  </defs>
  <metadata
     id="metadata14293">
    <rdf:RDF>
      <cc:Work
         rdf:about="">
        <dc:format>image/svg+xml</dc:format>
        <dc:type
           rdf:resource="http://purl.org/dc/dcmitype/StillImage" />
        <dc:title />
      </cc:Work>
    </rdf:RDF>
  </metadata>
  <g
     id="layer1">
    <path
       d="m 4.0001794,6.500079 c -0.43342,0.005 -0.5,0.21723 -0.5,0.6349 l 0,1.36502 c -1.24568,0 -1,-0.002 -1,0.54389 0.0216,6.53313 0,6.90143 0,7.45611 0.90135,0 26.9999996,-2.34895 26.9999996,-3.36005 l 0,-4.09606 c 0,-0.41767 -0.34799,-0.54876 -0.78141,-0.54389 l -14.21859,0 0,-1.36502 c 0,-0.41767 -0.26424,-0.63977 -0.69767,-0.6349 l -9.8023296,0 z"
       id="path3468-10"
       style="opacity:0.8;color:#000000;fill:none;stroke:url(#linearGradient14236);stroke-width:1;stroke-linecap:butt;stroke-linejoin:miter;stroke-miterlimit:4;stroke-opacity:1;stroke-dasharray:none;stroke-dashoffset:0;marker:none;visibility:visible;display:inline;overflow:visible;enable-background:accumulate" />
    <path
       d="m 4.0001794,6.999999 0,2 -1,0 0,4 25.9999996,0 0,-4 -15,0 0,-2 -9.9999996,0 z"
       id="rect3409-5"
       style="color:#000000;fill:url(#linearGradient5899);fill-opacity:1;fill-rule:nonzero;stroke:none;stroke-width:1;marker:none;visibility:visible;display:inline;overflow:visible;enable-background:accumulate" />
    <path
       d="m 4.5001794,7.499999 0,2 -1,0 0,4 24.9999996,0 0,-4 -15,0 0,-2 -8.9999996,0 z"
       id="rect3409"
       style="color:#000000;fill:none;stroke:url(#linearGradient5903);stroke-width:1;stroke-linecap:round;stroke-linejoin:miter;stroke-miterlimit:4;stroke-opacity:1;stroke-dasharray:none;stroke-dashoffset:0;marker:none;visibility:visible;display:inline;overflow:visible;enable-background:accumulate" />
    <g
       transform="translate(1.7935663e-4,-1.000001)"
       id="g2458">
      <rect
         width="24.694677"
         height="3.8652544"
         x="3.6471815"
         y="28.134747"
         id="rect4173-1"
         style="opacity:0.3;fill:url(#linearGradient5905);fill-opacity:1;fill-rule:nonzero;stroke:none;stroke-width:1;marker:none;visibility:visible;display:inline;overflow:visible" />
      <path
         d="m 28.341859,28.13488 c 0,0 0,3.865041 0,3.865041 1.021491,0.0073 2.469468,-0.86596 2.469468,-1.932769 0,-1.06681 -1.139908,-1.932272 -2.469468,-1.932272 z"
         id="path5058-4"
         style="opacity:0.3;fill:url(#radialGradient5907);fill-opacity:1;fill-rule:nonzero;stroke:none;stroke-width:1;marker:none;visibility:visible;display:inline;overflow:visible" />
      <path
         d="m 3.6471816,28.13488 c 0,0 0,3.865041 0,3.865041 -1.0214912,0.0073 -2.4694678,-0.86596 -2.4694678,-1.932769 0,-1.06681 1.1399068,-1.932272 2.4694678,-1.932272 z"
         id="path5018-84"
         style="opacity:0.3;fill:url(#radialGradient5909);fill-opacity:1;fill-rule:nonzero;stroke:none;stroke-width:1;marker:none;visibility:visible;display:inline;overflow:visible" />
    </g>
    <path
       d="m 1.9270194,11.499999 c -0.69105,0.0796 -0.32196,0.90258 -0.37705,1.36535 0.0802,0.29906 0.59771,15.71799 0.59771,16.24744 0,0.46018 0.22667,0.38222 0.80101,0.38222 8.4993996,0 17.8980796,0 26.3974796,0 0.61872,0.0143 0.48796,0.007 0.48796,-0.38947 0.0452,-0.20269 0.63993,-16.97848 0.66282,-17.24344 0,-0.279 0.0581,-0.3621 -0.30493,-0.3621 -9.0765,0 -19.18849,0 -28.2649996,0 z"
       id="path3388"
       style="color:#000000;fill:url(#linearGradient5915);fill-opacity:1;fill-rule:nonzero;stroke:none;stroke-width:0.99999994;marker:none;visibility:visible;display:inline;overflow:visible;enable-background:accumulate" />
    <path
       d="m 1.6819994,10.999999 28.6363696,2.7e-4 c 0.4137,0 0.68181,0.29209 0.68181,0.65523 l -0.6735,17.71211 c 0.01,0.45948 -0.1364,0.64166 -0.61707,0.63203 l -27.2561296,-0.0115 c -0.4137,0 -0.83086,-0.27118 -0.83086,-0.63432 l -0.62244,-17.69829 c 0,-0.36314 0.26812,-0.65549 0.68182,-0.65549 z"
       id="path6127-36"
       style="opacity:0.4;fill:url(#linearGradient5922);fill-opacity:1;stroke:none" />
    <path
       d="m 2.5001794,12.499999 0.62498,16 25.7491696,0 0.62498,-16 z"
       id="path3309"
       style="opacity:0.5;color:#000000;fill:none;stroke:url(#linearGradient5926);stroke-width:1.00000012;stroke-linecap:round;stroke-linejoin:miter;stroke-miterlimit:4;stroke-opacity:1;stroke-dasharray:none;stroke-dashoffset:0;marker:none;visibility:visible;display:inline;overflow:visible;enable-background:accumulate" />
    <path
       d="m 1.9270194,11.499999 c -0.69105,0.0796 -0.32196,0.90258 -0.37705,1.36535 0.0802,0.29906 0.59771,15.71799 0.59771,16.24744 0,0.46018 0.22667,0.38222 0.80101,0.38222 8.4993996,0 17.8980796,0 26.3974796,0 0.61872,0.0143 0.48796,0.007 0.48796,-0.38947 0.0452,-0.20269 0.63993,-16.97848 0.66282,-17.24344 0,-0.279 0.0581,-0.3621 -0.30493,-0.3621 -9.0765,0 -19.18849,0 -28.2649996,0 z"
       id="path3388-5"
       style="opacity:0.3;color:#000000;fill:none;stroke:#000000;stroke-width:0.99999994;stroke-linecap:round;stroke-linejoin:round;stroke-miterlimit:4;stroke-opacity:1;stroke-dasharray:none;stroke-dashoffset:0;marker:none;visibility:visible;display:inline;overflow:visible;enable-background:accumulate" />
  </g>
  <g
     id="g4588"
     transform="matrix(0.28951342,0,0,0.28951342,2.0340814,17.153473)"
     style="stroke-width:3.45407152">
    <g
       id="g4576"
       transform="matrix(0.02345232,0,0,0.02345232,103.70888,26.25601)"
       style="opacity:0.62699998;fill:#ffffff;fill-opacity:1;stroke:none;stroke-width:147.28062439">
      <path
         transform="translate(0,-48)"
         inkscape:connector-curvature="0"
         id="path4568"
         d="m -3080.2108,-470.48307 c -23.6249,-9.31101 -53.895,-34.43256 -67.5463,-56.05762 -43.9609,-69.63856 -14.9992,-163.61328 61.3341,-199.01637 18.5446,-8.60093 28.7581,-10.58903 54.8701,-10.68073 28.3136,-0.0994 35.2225,1.43234 58.7894,13.03432 29.6162,14.57998 52.9142,38.00108 67.6304,67.9876 7.5535,15.39157 9.2802,25.49439 9.3772,54.86541 0.1041,31.52743 -1.2819,38.85265 -11.1563,58.9611 -24.2716,49.42745 -65.583,76.09959 -120.7248,77.94428 -24.5959,0.82283 -36.7604,-0.80562 -52.5738,-7.03799 z"
         style="opacity:0.85900005;fill:#ffffff;fill-opacity:1;stroke:none;stroke-width:736.40325928;stroke-linecap:round;stroke-linejoin:bevel;stroke-miterlimit:4;stroke-dasharray:none;stroke-dashoffset:0;stroke-opacity:0.4" />
      <path
         transform="translate(0,-48)"
         inkscape:connector-curvature="0"
         id="path4570"
         d="m -2815.8295,-1170.0077 c -58.2352,-33.4031 -65.1695,-109.4508 -13.9758,-153.2707 39.3022,-33.6412 89.8944,-30.9828 126.6109,6.6527 32.3838,33.1945 37.946,74.4289 15.2616,113.1397 -25.5467,43.5951 -83.714,58.821 -127.8967,33.4783 z"
         style="opacity:0.85900005;fill:#ffffff;fill-opacity:1;stroke:none;stroke-width:736.40325928;stroke-linecap:round;stroke-linejoin:bevel;stroke-miterlimit:4;stroke-dasharray:none;stroke-dashoffset:0;stroke-opacity:0.4" />
      <path
         transform="translate(0,-48)"
         inkscape:connector-curvature="0"
         id="path4572"
         d="m -2593.637,270.88614 c -74.7304,-12.5096 -138.2803,-68.82541 -160.6043,-142.32235 -10.5917,-34.870949 -8.9707,-89.037437 3.7122,-124.0478128 15.1473,-41.8127842 48.2572,-81.1951842 88.8921,-105.7320972 39.2588,-23.70595 103.5905,-32.0714 150.5264,-19.57384 102.8073,27.374375 169.7074,139.075721 143.5172,239.62672 -26.4218,101.44039 -126.4454,168.7217 -226.0436,152.04938 z"
         style="opacity:0.85900005;fill:#ffffff;fill-opacity:1;stroke:none;stroke-width:736.40325928;stroke-linecap:round;stroke-linejoin:bevel;stroke-miterlimit:4;stroke-dasharray:none;stroke-dashoffset:0;stroke-opacity:0.4" />
      <path
         transform="translate(0,-48)"
         inkscape:connector-curvature="0"
         id="path4574"
         d="m -2170.8977,-413.63738 -90.6221,-90.71308 136.9414,-137.89136 c 75.3178,-75.84024 152.1816,-153.7422 170.8085,-173.11548 l 33.867,-35.22416 -170.8747,-170.90944 -170.8748,-170.9094 92.0221,-91.9569 92.0221,-91.9568 262.6669,262.6668 262.6668,262.6669 -119.6812,121.89672 c -65.8248,67.0432 -184.625,185.85576 -264.0007,264.02796 l -144.3193,142.13128 z"
         style="opacity:0.85900005;fill:#ffffff;fill-opacity:1;stroke:none;stroke-width:736.40325928;stroke-linecap:round;stroke-linejoin:bevel;stroke-miterlimit:4;stroke-dasharray:none;stroke-dashoffset:0;stroke-opacity:0.4" />
    </g>
    <g
       style="fill:#3c7195;fill-opacity:1;stroke:none;stroke-width:147.28062439"
       transform="matrix(0.02345232,0,0,0.02345232,103.48033,24.63469)"
       id="g4558">
      <path
         style="opacity:0.85900005;fill:#3c7195;fill-opacity:1;stroke:none;stroke-width:736.40325928;stroke-linecap:round;stroke-linejoin:bevel;stroke-miterlimit:4;stroke-dasharray:none;stroke-dashoffset:0;stroke-opacity:0.4"
         d="m -3080.2108,-470.48307 c -23.6249,-9.31101 -53.895,-34.43256 -67.5463,-56.05762 -43.9609,-69.63856 -14.9992,-163.61328 61.3341,-199.01637 18.5446,-8.60093 28.7581,-10.58903 54.8701,-10.68073 28.3136,-0.0994 35.2225,1.43234 58.7894,13.03432 29.6162,14.57998 52.9142,38.00108 67.6304,67.9876 7.5535,15.39157 9.2802,25.49439 9.3772,54.86541 0.1041,31.52743 -1.2819,38.85265 -11.1563,58.9611 -24.2716,49.42745 -65.583,76.09959 -120.7248,77.94428 -24.5959,0.82283 -36.7604,-0.80562 -52.5738,-7.03799 z"
         id="path4546"
         inkscape:connector-curvature="0"
         transform="translate(0,-48)" />
      <path
         style="opacity:0.85900005;fill:#3c7195;fill-opacity:1;stroke:none;stroke-width:736.40325928;stroke-linecap:round;stroke-linejoin:bevel;stroke-miterlimit:4;stroke-dasharray:none;stroke-dashoffset:0;stroke-opacity:0.4"
         d="m -2815.8295,-1170.0077 c -58.2352,-33.4031 -65.1695,-109.4508 -13.9758,-153.2707 39.3022,-33.6412 89.8944,-30.9828 126.6109,6.6527 32.3838,33.1945 37.946,74.4289 15.2616,113.1397 -25.5467,43.5951 -83.714,58.821 -127.8967,33.4783 z"
         id="path4548"
         inkscape:connector-curvature="0"
         transform="translate(0,-48)" />
      <path
         style="opacity:0.85900005;fill:#3c7195;fill-opacity:1;stroke:none;stroke-width:736.40325928;stroke-linecap:round;stroke-linejoin:bevel;stroke-miterlimit:4;stroke-dasharray:none;stroke-dashoffset:0;stroke-opacity:0.4"
         d="m -2593.637,270.88614 c -74.7304,-12.5096 -138.2803,-68.82541 -160.6043,-142.32235 -10.5917,-34.870949 -8.9707,-89.037437 3.7122,-124.0478128 15.1473,-41.8127842 48.2572,-81.1951842 88.8921,-105.7320972 39.2588,-23.70595 103.5905,-32.0714 150.5264,-19.57384 102.8073,27.374375 169.7074,139.075721 143.5172,239.62672 -26.4218,101.44039 -126.4454,168.7217 -226.0436,152.04938 z"
         id="path4550"
         inkscape:connector-curvature="0"
         transform="translate(0,-48)" />
      <path
         style="opacity:0.85900005;fill:#3c7195;fill-opacity:1;stroke:none;stroke-width:736.40325928;stroke-linecap:round;stroke-linejoin:bevel;stroke-miterlimit:4;stroke-dasharray:none;stroke-dashoffset:0;stroke-opacity:0.4"
         d="m -2170.8977,-413.63738 -90.6221,-90.71308 136.9414,-137.89136 c 75.3178,-75.84024 152.1816,-153.7422 170.8085,-173.11548 l 33.867,-35.22416 -170.8747,-170.90944 -170.8748,-170.9094 92.0221,-91.9569 92.0221,-91.9568 262.6669,262.6668 262.6668,262.6669 -119.6812,121.89672 c -65.8248,67.0432 -184.625,185.85576 -264.0007,264.02796 l -144.3193,142.13128 z"
         id="path4552"
         inkscape:connector-curvature="0"
         transform="translate(0,-48)" />
    </g>
  </g>
</svg>
