<?xml version="1.0" encoding="UTF-8" standalone="no"?>
<svg
   xmlns:dc="http://purl.org/dc/elements/1.1/"
   xmlns:cc="http://creativecommons.org/ns#"
   xmlns:rdf="http://www.w3.org/1999/02/22-rdf-syntax-ns#"
   xmlns:svg="http://www.w3.org/2000/svg"
   xmlns="http://www.w3.org/2000/svg"
   xmlns:xlink="http://www.w3.org/1999/xlink"
   xmlns:sodipodi="http://sodipodi.sourceforge.net/DTD/sodipodi-0.dtd"
   xmlns:inkscape="http://www.inkscape.org/namespaces/inkscape"
   id="svg10994"
   height="24"
   width="24"
   version="1.1"
   sodipodi:docname="system-file-manager.svg"
   inkscape:version="0.92.1 r15371">
  <sodipodi:namedview
     pagecolor="#ffffff"
     bordercolor="#666666"
     borderopacity="1"
     objecttolerance="10"
     gridtolerance="10"
     guidetolerance="10"
     inkscape:pageopacity="0"
     inkscape:pageshadow="2"
     inkscape:window-width="2560"
     inkscape:window-height="1378"
     id="namedview51"
     showgrid="false"
     inkscape:zoom="13.906433"
     inkscape:cx="36.813736"
     inkscape:cy="0.090960444"
     inkscape:window-x="1920"
     inkscape:window-y="0"
     inkscape:window-maximized="1"
     inkscape:current-layer="svg10994" />
  <defs
     id="defs10996">
    <linearGradient
       id="linearGradient4280">
      <stop
         id="stop4282"
         offset="0"
         style="stop-color:#000000;stop-opacity:1;" />
      <stop
         id="stop4284"
         offset="1"
         style="stop-color:#000000;stop-opacity:0;" />
    </linearGradient>
    <linearGradient
       gradientTransform="matrix(0.62762637,0,0,0.7245642,2.9730682,4.6273679)"
       gradientUnits="userSpaceOnUse"
       xlink:href="#linearGradient3454-2-5-0-3-4-1"
       id="linearGradient4440-9"
       y2="21.386522"
       x2="27.557428"
       y1="6.0348444"
       x1="27.557428" />
    <linearGradient
       id="linearGradient3454-2-5-0-3-4-1">
      <stop
         offset="0"
         style="stop-color:#ffffff;stop-opacity:1"
         id="stop3456-4-9-38-1-8-8" />
      <stop
         offset="0.0097359"
         style="stop-color:#ffffff;stop-opacity:0.23529412"
         id="stop3458-39-80-3-5-5-8" />
      <stop
         offset="0.99001008"
         style="stop-color:#ffffff;stop-opacity:0.15686275"
         id="stop3460-7-0-2-4-2-7" />
      <stop
         offset="1"
         style="stop-color:#ffffff;stop-opacity:0.39215687"
         id="stop3462-0-9-8-7-2-3" />
    </linearGradient>
    <linearGradient
       id="linearGradient4632-0-6-4-3-4-0">
      <stop
         offset="0"
         style="stop-color:#b4cee1;stop-opacity:1"
         id="stop4634-4-4-7-7-4-8" />
      <stop
         offset="1"
         style="stop-color:#5d9fcd;stop-opacity:1"
         id="stop4636-3-1-5-1-3-9" />
    </linearGradient>
    <linearGradient
       gradientTransform="matrix(0.43131243,0,0,0.48638011,1.9898582,3.1854079)"
       gradientUnits="userSpaceOnUse"
       xlink:href="#linearGradient4325-0"
       id="linearGradient4418-4"
       y2="34.143417"
       x2="21.37039"
       y1="4.73244"
       x1="21.37039" />
    <linearGradient
       id="linearGradient4325-0">
      <stop
         offset="0"
         style="stop-color:#ffffff;stop-opacity:1"
         id="stop4327-4" />
      <stop
         offset="0.1106325"
         style="stop-color:#ffffff;stop-opacity:0.23529412"
         id="stop4329-5" />
      <stop
         offset="0.99001008"
         style="stop-color:#ffffff;stop-opacity:0.15686275"
         id="stop4331-6" />
      <stop
         offset="1"
         style="stop-color:#ffffff;stop-opacity:0.39215687"
         id="stop4333-7" />
    </linearGradient>
    <linearGradient
       gradientTransform="matrix(0.49096263,0,0,0.48984879,-24.706222,0.2872379)"
       gradientUnits="userSpaceOnUse"
       xlink:href="#linearGradient4646-7-4-3-5-6"
       id="linearGradient4414-2"
       y2="16"
       x2="62.988873"
       y1="13"
       x1="62.988873" />
    <linearGradient
       id="linearGradient4646-7-4-3-5-6">
      <stop
         offset="0"
         style="stop-color:#f9f9f9;stop-opacity:1"
         id="stop4648-8-0-3-6-5" />
      <stop
         offset="1"
         style="stop-color:#d8d8d8;stop-opacity:1"
         id="stop4650-1-7-3-4-8" />
    </linearGradient>
    <linearGradient
       gradientTransform="matrix(2.774389,0,0,1.969706,-1892.179,-872.8854)"
       gradientUnits="userSpaceOnUse"
       xlink:href="#linearGradient5048"
       id="linearGradient3028"
       y2="609.50507"
       x2="302.85715"
       y1="366.64789"
       x1="302.85715" />
    <linearGradient
       id="linearGradient5048">
      <stop
         offset="0"
         style="stop-color:#000000;stop-opacity:0"
         id="stop5050" />
      <stop
         offset="0.5"
         style="stop-color:#000000;stop-opacity:1"
         id="stop5056" />
      <stop
         offset="1"
         style="stop-color:#000000;stop-opacity:0"
         id="stop5052" />
    </linearGradient>
    <radialGradient
       gradientTransform="matrix(2.774389,0,0,1.969706,-1891.633,-872.8854)"
       gradientUnits="userSpaceOnUse"
       xlink:href="#linearGradient5060"
       id="radialGradient3030"
       fy="486.64789"
       fx="605.71429"
       r="117.14286"
       cy="486.64789"
       cx="605.71429" />
    <linearGradient
       id="linearGradient5060">
      <stop
         offset="0"
         style="stop-color:#000000;stop-opacity:1"
         id="stop5062" />
      <stop
         offset="1"
         style="stop-color:#000000;stop-opacity:0"
         id="stop5064" />
    </linearGradient>
    <radialGradient
       gradientTransform="matrix(-2.774389,0,0,1.969706,112.7623,-872.8854)"
       gradientUnits="userSpaceOnUse"
       xlink:href="#linearGradient5060"
       id="radialGradient3032"
       fy="486.64789"
       fx="605.71429"
       r="117.14286"
       cy="486.64789"
       cx="605.71429" />
    <linearGradient
       gradientTransform="translate(0,1)"
       gradientUnits="userSpaceOnUse"
       y2="20"
       x2="13"
       y1="8"
       x1="13"
       id="linearGradient4208"
       xlink:href="#linearGradient4632-0-6-4-3-4-0" />
    <linearGradient
       gradientTransform="translate(0,1)"
       gradientUnits="userSpaceOnUse"
       y2="18"
       x2="12"
       y1="23"
       x1="12"
       id="linearGradient4286"
       xlink:href="#linearGradient4280" />
    <linearGradient
       gradientTransform="matrix(0.80749834,0,0,0.83374395,104.87672,-8.06984)"
       gradientUnits="userSpaceOnUse"
       xlink:href="#linearGradient4280"
       id="linearGradient18155"
       y2="9.5041132"
       x2="-94.7248"
       y1="36.026463"
       x1="-94.7248" />
  </defs>
  <metadata
     id="metadata10999">
    <rdf:RDF>
      <cc:Work
         rdf:about="">
        <dc:format>image/svg+xml</dc:format>
        <dc:type
           rdf:resource="http://purl.org/dc/dcmitype/StillImage" />
        <dc:title />
      </cc:Work>
    </rdf:RDF>
  </metadata>
  <g
     transform="matrix(0.5459263,0,0,0.5168524,-0.96573178,-1.578182)"
     id="g3490"
     style="stroke-width:1.88256383;stroke-miterlimit:4;stroke-dasharray:none">
    <g
       transform="matrix(0.02165152,0,0,0.01485743,43.0076,42.68539)"
       id="g5022"
       style="display:inline;stroke-width:104.96237946;stroke-miterlimit:4;stroke-dasharray:none">
      <rect
         width="1339.6335"
         height="478.35718"
         x="-1559.2523"
         y="-150.69685"
         id="rect4173-4"
         style="display:inline;overflow:visible;visibility:visible;opacity:0.40206185;fill:url(#linearGradient3028);fill-opacity:1;fill-rule:nonzero;stroke:none;stroke-width:104.96237946;marker:none" />
      <path
         d="m -219.61876,-150.68038 c 0,0 0,478.33079 0,478.33079 142.874166,0.90045 345.40022,-107.16966 345.40014,-239.196175 0,-132.026537 -159.436816,-239.134595 -345.40014,-239.134615 z"
         id="path5058-9"
         style="display:inline;overflow:visible;visibility:visible;opacity:0.40206185;fill:url(#radialGradient3030);fill-opacity:1;fill-rule:nonzero;stroke:none;stroke-width:104.96237946;marker:none" />
      <path
         d="m -1559.2523,-150.68038 c 0,0 0,478.33079 0,478.33079 -142.8742,0.90045 -345.4002,-107.16966 -345.4002,-239.196175 0,-132.026537 159.4368,-239.134595 345.4002,-239.134615 z"
         id="path5018-53"
         style="display:inline;overflow:visible;visibility:visible;opacity:0.40206185;fill:url(#radialGradient3032);fill-opacity:1;fill-rule:nonzero;stroke:none;stroke-width:104.96237946;marker:none" />
    </g>
  </g>
  <path
     d="m 3.0362982,3.5043839 c -0.277,0 -0.5,0.223 -0.5,0.5 l 0,1.495614 -0.5,0 c -0.277,0 -0.5,0.223 -0.5,0.5 l 0,1.0465645 20.9999998,0 0,-1.0465645 c 0,-0.277 -0.223,-0.5 -0.5,-0.5 l -11.5,0 0,-1.495614 c 0,-0.277 -0.223,-0.5 -0.5,-0.5 z"
     id="rect3186"
     style="color:#000000;clip-rule:nonzero;display:inline;overflow:visible;visibility:visible;opacity:0.8;isolation:auto;mix-blend-mode:normal;color-interpolation:sRGB;color-interpolation-filters:linearRGB;solid-color:#000000;solid-opacity:1;fill:none;fill-opacity:1;fill-rule:nonzero;stroke:url(#linearGradient18155);stroke-width:1;stroke-linecap:butt;stroke-linejoin:miter;stroke-miterlimit:4;stroke-dasharray:none;stroke-dashoffset:0;stroke-opacity:1;marker:none;color-rendering:auto;image-rendering:auto;shape-rendering:auto;text-rendering:auto;enable-background:accumulate" />
  <path
     d="m 3.0362982,3.9999979 0,2 -1,0 0,3 19.9999998,0 0,-3 -12,0 0,-2 z"
     id="rect3409-5-2"
     style="color:#000000;display:inline;overflow:visible;visibility:visible;fill:url(#linearGradient4414-2);fill-opacity:1;fill-rule:nonzero;stroke:none;stroke-width:1;marker:none;enable-background:accumulate" />
  <path
     d="m 3.5362982,4.4999979 0,2 -1,0 0,2.33929 18.9999998,0 0,-2.33929 -11.9999998,0 0,-2 z"
     id="rect3409-3"
     style="color:#000000;display:inline;overflow:visible;visibility:visible;fill:none;stroke:url(#linearGradient4418-4);stroke-width:1;stroke-linecap:round;stroke-linejoin:miter;stroke-miterlimit:4;stroke-dasharray:none;stroke-dashoffset:0;stroke-opacity:1;marker:none;enable-background:accumulate" />
  <path
     id="rect4198"
     d="M 1.5,7.5 1.5,8 1.5,18.000264 1.75,21.5 22.25,21.5 22.5,18.000264 22.5,7.5 Z"
     style="color:#000000;font-style:normal;font-variant:normal;font-weight:normal;font-stretch:normal;font-size:medium;line-height:normal;font-family:sans-serif;text-indent:0;text-align:start;text-decoration:none;text-decoration-line:none;text-decoration-style:solid;text-decoration-color:#000000;letter-spacing:normal;word-spacing:normal;text-transform:none;direction:ltr;block-progression:tb;writing-mode:lr-tb;baseline-shift:baseline;text-anchor:start;white-space:normal;clip-rule:nonzero;display:inline;overflow:visible;visibility:visible;opacity:1;isolation:auto;mix-blend-mode:normal;color-interpolation:sRGB;color-interpolation-filters:linearRGB;solid-color:#000000;solid-opacity:1;fill:url(#linearGradient4208);fill-opacity:1;fill-rule:nonzero;stroke:#000000;stroke-width:1;stroke-linecap:butt;stroke-linejoin:round;stroke-miterlimit:4;stroke-dasharray:none;stroke-dashoffset:0;stroke-opacity:0.30196078;color-rendering:auto;image-rendering:auto;shape-rendering:auto;text-rendering:auto;enable-background:accumulate" />
  <path
     id="path4268"
     d="M 1.5,7 C 1.223869,7.0000276 1.000028,7.2238691 1,7.5 L 1,8 1.25,21.5 c 2.8e-5,0.276131 0.223869,0.499972 0.5,0.5 l 20.5,0 c 0.276131,-2.8e-5 0.499972,-0.223869 0.5,-0.5 L 23,7.5 C 22.999972,7.2238691 22.776131,7.0000276 22.5,7 Z"
     style="color:#000000;font-style:normal;font-variant:normal;font-weight:normal;font-stretch:normal;font-size:medium;line-height:normal;font-family:sans-serif;text-indent:0;text-align:start;text-decoration:none;text-decoration-line:none;text-decoration-style:solid;text-decoration-color:#000000;letter-spacing:normal;word-spacing:normal;text-transform:none;direction:ltr;block-progression:tb;writing-mode:lr-tb;baseline-shift:baseline;text-anchor:start;white-space:normal;clip-rule:nonzero;display:inline;overflow:visible;visibility:visible;opacity:0.3;isolation:auto;mix-blend-mode:normal;color-interpolation:sRGB;color-interpolation-filters:linearRGB;solid-color:#000000;solid-opacity:1;fill:url(#linearGradient4286);fill-opacity:1;fill-rule:nonzero;stroke:none;stroke-width:1;stroke-linecap:butt;stroke-linejoin:round;stroke-miterlimit:4;stroke-dasharray:none;stroke-dashoffset:0;stroke-opacity:1;color-rendering:auto;image-rendering:auto;shape-rendering:auto;text-rendering:auto;enable-background:accumulate" />
  <path
     d="M 2.5,8.4999979 2.4462368,18.004917 2.75,20.499998 l 18.5,0 0.258854,-2.444262 L 21.5,8.4999979 Z"
     id="path3309-8"
     style="color:#000000;display:inline;overflow:visible;visibility:visible;opacity:0.5;fill:none;stroke:url(#linearGradient4440-9);stroke-width:1.00000012;stroke-linecap:round;stroke-linejoin:miter;stroke-miterlimit:4;stroke-dasharray:none;stroke-dashoffset:0;stroke-opacity:1;marker:none;enable-background:accumulate" />
  <g
     id="g4588"
     transform="matrix(0.2369433,0,0,0.2369433,0.57002607,11.838328)"
     style="stroke-width:4.22041893">
    <g
       id="g4576"
       transform="matrix(0.02345232,0,0,0.02345232,103.70888,26.25601)"
       style="opacity:0.62699998;fill:#ffffff;fill-opacity:1;stroke:none;stroke-width:179.95748901">
      <path
         transform="translate(0,-48)"
         inkscape:connector-curvature="0"
         id="path4568"
         d="m -3080.2108,-470.48307 c -23.6249,-9.31101 -53.895,-34.43256 -67.5463,-56.05762 -43.9609,-69.63856 -14.9992,-163.61328 61.3341,-199.01637 18.5446,-8.60093 28.7581,-10.58903 54.8701,-10.68073 28.3136,-0.0994 35.2225,1.43234 58.7894,13.03432 29.6162,14.57998 52.9142,38.00108 67.6304,67.9876 7.5535,15.39157 9.2802,25.49439 9.3772,54.86541 0.1041,31.52743 -1.2819,38.85265 -11.1563,58.9611 -24.2716,49.42745 -65.583,76.09959 -120.7248,77.94428 -24.5959,0.82283 -36.7604,-0.80562 -52.5738,-7.03799 z"
         style="opacity:0.85900005;fill:#ffffff;fill-opacity:1;stroke:none;stroke-width:899.78759766;stroke-linecap:round;stroke-linejoin:bevel;stroke-miterlimit:4;stroke-dasharray:none;stroke-dashoffset:0;stroke-opacity:0.4" />
      <path
         transform="translate(0,-48)"
         inkscape:connector-curvature="0"
         id="path4570"
         d="m -2815.8295,-1170.0077 c -58.2352,-33.4031 -65.1695,-109.4508 -13.9758,-153.2707 39.3022,-33.6412 89.8944,-30.9828 126.6109,6.6527 32.3838,33.1945 37.946,74.4289 15.2616,113.1397 -25.5467,43.5951 -83.714,58.821 -127.8967,33.4783 z"
         style="opacity:0.85900005;fill:#ffffff;fill-opacity:1;stroke:none;stroke-width:899.78759766;stroke-linecap:round;stroke-linejoin:bevel;stroke-miterlimit:4;stroke-dasharray:none;stroke-dashoffset:0;stroke-opacity:0.4" />
      <path
         transform="translate(0,-48)"
         inkscape:connector-curvature="0"
         id="path4572"
         d="m -2593.637,270.88614 c -74.7304,-12.5096 -138.2803,-68.82541 -160.6043,-142.32235 -10.5917,-34.870949 -8.9707,-89.037437 3.7122,-124.0478128 15.1473,-41.8127842 48.2572,-81.1951842 88.8921,-105.7320972 39.2588,-23.70595 103.5905,-32.0714 150.5264,-19.57384 102.8073,27.374375 169.7074,139.075721 143.5172,239.62672 -26.4218,101.44039 -126.4454,168.7217 -226.0436,152.04938 z"
         style="opacity:0.85900005;fill:#ffffff;fill-opacity:1;stroke:none;stroke-width:899.78759766;stroke-linecap:round;stroke-linejoin:bevel;stroke-miterlimit:4;stroke-dasharray:none;stroke-dashoffset:0;stroke-opacity:0.4" />
      <path
         transform="translate(0,-48)"
         inkscape:connector-curvature="0"
         id="path4574"
         d="m -2170.8977,-413.63738 -90.6221,-90.71308 136.9414,-137.89136 c 75.3178,-75.84024 152.1816,-153.7422 170.8085,-173.11548 l 33.867,-35.22416 -170.8747,-170.90944 -170.8748,-170.9094 92.0221,-91.9569 92.0221,-91.9568 262.6669,262.6668 262.6668,262.6669 -119.6812,121.89672 c -65.8248,67.0432 -184.625,185.85576 -264.0007,264.02796 l -144.3193,142.13128 z"
         style="opacity:0.85900005;fill:#ffffff;fill-opacity:1;stroke:none;stroke-width:899.78759766;stroke-linecap:round;stroke-linejoin:bevel;stroke-miterlimit:4;stroke-dasharray:none;stroke-dashoffset:0;stroke-opacity:0.4" />
    </g>
    <g
       style="fill:#3c7195;fill-opacity:1;stroke:none;stroke-width:179.95748901"
       transform="matrix(0.02345232,0,0,0.02345232,103.48033,24.63469)"
       id="g4558">
      <path
         style="opacity:0.85900005;fill:#3c7195;fill-opacity:1;stroke:none;stroke-width:899.78759766;stroke-linecap:round;stroke-linejoin:bevel;stroke-miterlimit:4;stroke-dasharray:none;stroke-dashoffset:0;stroke-opacity:0.4"
         d="m -3080.2108,-470.48307 c -23.6249,-9.31101 -53.895,-34.43256 -67.5463,-56.05762 -43.9609,-69.63856 -14.9992,-163.61328 61.3341,-199.01637 18.5446,-8.60093 28.7581,-10.58903 54.8701,-10.68073 28.3136,-0.0994 35.2225,1.43234 58.7894,13.03432 29.6162,14.57998 52.9142,38.00108 67.6304,67.9876 7.5535,15.39157 9.2802,25.49439 9.3772,54.86541 0.1041,31.52743 -1.2819,38.85265 -11.1563,58.9611 -24.2716,49.42745 -65.583,76.09959 -120.7248,77.94428 -24.5959,0.82283 -36.7604,-0.80562 -52.5738,-7.03799 z"
         id="path4546"
         inkscape:connector-curvature="0"
         transform="translate(0,-48)" />
      <path
         style="opacity:0.85900005;fill:#3c7195;fill-opacity:1;stroke:none;stroke-width:899.78759766;stroke-linecap:round;stroke-linejoin:bevel;stroke-miterlimit:4;stroke-dasharray:none;stroke-dashoffset:0;stroke-opacity:0.4"
         d="m -2815.8295,-1170.0077 c -58.2352,-33.4031 -65.1695,-109.4508 -13.9758,-153.2707 39.3022,-33.6412 89.8944,-30.9828 126.6109,6.6527 32.3838,33.1945 37.946,74.4289 15.2616,113.1397 -25.5467,43.5951 -83.714,58.821 -127.8967,33.4783 z"
         id="path4548"
         inkscape:connector-curvature="0"
         transform="translate(0,-48)" />
      <path
         style="opacity:0.85900005;fill:#3c7195;fill-opacity:1;stroke:none;stroke-width:899.78759766;stroke-linecap:round;stroke-linejoin:bevel;stroke-miterlimit:4;stroke-dasharray:none;stroke-dashoffset:0;stroke-opacity:0.4"
         d="m -2593.637,270.88614 c -74.7304,-12.5096 -138.2803,-68.82541 -160.6043,-142.32235 -10.5917,-34.870949 -8.9707,-89.037437 3.7122,-124.0478128 15.1473,-41.8127842 48.2572,-81.1951842 88.8921,-105.7320972 39.2588,-23.70595 103.5905,-32.0714 150.5264,-19.57384 102.8073,27.374375 169.7074,139.075721 143.5172,239.62672 -26.4218,101.44039 -126.4454,168.7217 -226.0436,152.04938 z"
         id="path4550"
         inkscape:connector-curvature="0"
         transform="translate(0,-48)" />
      <path
         style="opacity:0.85900005;fill:#3c7195;fill-opacity:1;stroke:none;stroke-width:899.78759766;stroke-linecap:round;stroke-linejoin:bevel;stroke-miterlimit:4;stroke-dasharray:none;stroke-dashoffset:0;stroke-opacity:0.4"
         d="m -2170.8977,-413.63738 -90.6221,-90.71308 136.9414,-137.89136 c 75.3178,-75.84024 152.1816,-153.7422 170.8085,-173.11548 l 33.867,-35.22416 -170.8747,-170.90944 -170.8748,-170.9094 92.0221,-91.9569 92.0221,-91.9568 262.6669,262.6668 262.6668,262.6669 -119.6812,121.89672 c -65.8248,67.0432 -184.625,185.85576 -264.0007,264.02796 l -144.3193,142.13128 z"
         id="path4552"
         inkscape:connector-curvature="0"
         transform="translate(0,-48)" />
    </g>
  </g>
</svg>
