<?xml version="1.0" encoding="UTF-8" standalone="no"?>
<!-- Created with Inkscape (http://www.inkscape.org/) -->

<svg
   xmlns:dc="http://purl.org/dc/elements/1.1/"
   xmlns:cc="http://creativecommons.org/ns#"
   xmlns:rdf="http://www.w3.org/1999/02/22-rdf-syntax-ns#"
   xmlns:svg="http://www.w3.org/2000/svg"
   xmlns="http://www.w3.org/2000/svg"
   xmlns:xlink="http://www.w3.org/1999/xlink"
   xmlns:sodipodi="http://sodipodi.sourceforge.net/DTD/sodipodi-0.dtd"
   xmlns:inkscape="http://www.inkscape.org/namespaces/inkscape"
   width="22"
   height="22"
   id="svg10994"
   version="1.1"
   inkscape:version="0.92.1 r15371"
   sodipodi:docname="folder.svg">
  <defs
     id="defs10996">
    <linearGradient
       inkscape:collect="always"
       xlink:href="#linearGradient3454-2-5-0-3-4-1"
       id="linearGradient4440-9"
       gradientUnits="userSpaceOnUse"
       gradientTransform="matrix(0.62762637,0,0,0.7245642,1.97277,-3.3726271)"
       x1="27.557428"
       y1="7.162672"
       x2="27.557428"
       y2="21.386522" />
    <linearGradient
       id="linearGradient3454-2-5-0-3-4-1">
      <stop
         offset="0"
         style="stop-color:#ffffff;stop-opacity:1"
         id="stop3456-4-9-38-1-8-8" />
      <stop
         offset="0.0097359"
         style="stop-color:#ffffff;stop-opacity:0.23529412"
         id="stop3458-39-80-3-5-5-8" />
      <stop
         offset="0.99001008"
         style="stop-color:#ffffff;stop-opacity:0.15686275"
         id="stop3460-7-0-2-4-2-7" />
      <stop
         offset="1"
         style="stop-color:#ffffff;stop-opacity:0.39215687"
         id="stop3462-0-9-8-7-2-3" />
    </linearGradient>
    <linearGradient
       inkscape:collect="always"
       xlink:href="#linearGradient6129-963-697-142-998-580-273-5-3"
       id="linearGradient4436-4"
       gradientUnits="userSpaceOnUse"
       gradientTransform="matrix(0.54761895,0,0,0.48299421,-2.10685,-7.2449071)"
       x1="22.934725"
       y1="49.629246"
       x2="22.809399"
       y2="36.657963" />
    <linearGradient
       id="linearGradient6129-963-697-142-998-580-273-5-3">
      <stop
         id="stop2661-1-2"
         style="stop-color:#0a0a0a;stop-opacity:0.498"
         offset="0" />
      <stop
         id="stop2663-85-8"
         style="stop-color:#0a0a0a;stop-opacity:0"
         offset="1" />
    </linearGradient>
    <linearGradient
       inkscape:collect="always"
       xlink:href="#linearGradient4632-0-6-4-3-4-0"
       id="linearGradient4430-9"
       gradientUnits="userSpaceOnUse"
       gradientTransform="matrix(0.4666607,0,0,0.46428558,-0.16384998,-7.1607071)"
       x1="35.792694"
       y1="17.118193"
       x2="35.792694"
       y2="43.761127" />
    <linearGradient
       id="linearGradient4632-0-6-4-3-4-0">
      <stop
         style="stop-color:#b4cee1;stop-opacity:1;"
         offset="0"
         id="stop4634-4-4-7-7-4-8" />
      <stop
         style="stop-color:#5d9fcd;stop-opacity:1;"
         offset="1"
         id="stop4636-3-1-5-1-3-9" />
    </linearGradient>
    <linearGradient
       inkscape:collect="always"
       xlink:href="#linearGradient4325-0"
       id="linearGradient4418-4"
       gradientUnits="userSpaceOnUse"
       gradientTransform="matrix(0.43131243,0,0,0.48638011,0.98956,-4.8145871)"
       x1="21.37039"
       y1="4.73244"
       x2="21.37039"
       y2="34.143417" />
    <linearGradient
       id="linearGradient4325-0">
      <stop
         offset="0"
         style="stop-color:#ffffff;stop-opacity:1"
         id="stop4327-4" />
      <stop
         offset="0.1106325"
         style="stop-color:#ffffff;stop-opacity:0.23529412"
         id="stop4329-5" />
      <stop
         offset="0.99001008"
         style="stop-color:#ffffff;stop-opacity:0.15686275"
         id="stop4331-6" />
      <stop
         offset="1"
         style="stop-color:#ffffff;stop-opacity:0.39215687"
         id="stop4333-7" />
    </linearGradient>
    <linearGradient
       inkscape:collect="always"
       xlink:href="#linearGradient4646-7-4-3-5-6"
       id="linearGradient4414-2"
       gradientUnits="userSpaceOnUse"
       gradientTransform="matrix(0.49096263,0,0,0.48984879,-25.70652,-7.7127571)"
       x1="62.988873"
       y1="13"
       x2="62.988873"
       y2="16" />
    <linearGradient
       id="linearGradient4646-7-4-3-5-6">
      <stop
         offset="0"
         style="stop-color:#f9f9f9;stop-opacity:1"
         id="stop4648-8-0-3-6-5" />
      <stop
         offset="1"
         style="stop-color:#d8d8d8;stop-opacity:1"
         id="stop4650-1-7-3-4-8" />
    </linearGradient>
    <linearGradient
       id="linearGradient3104-8-8-97-4-6-11-5-5-0-5">
      <stop
         offset="0"
         style="stop-color:#000000;stop-opacity:0.32173914"
         id="stop3106-5-4-3-5-0-2-1-0-6-6" />
      <stop
         offset="1"
         style="stop-color:#000000;stop-opacity:0.27826086"
         id="stop3108-4-3-7-8-2-0-7-9-1-4" />
    </linearGradient>
    <linearGradient
       y2="3.6336823"
       x2="-51.786404"
       y1="53.514328"
       x1="-51.786404"
       gradientTransform="matrix(0.40212523,0,0,0.398023,52.35056,-7.7909371)"
       gradientUnits="userSpaceOnUse"
       id="linearGradient10992"
       xlink:href="#linearGradient3104-8-8-97-4-6-11-5-5-0-5"
       inkscape:collect="always" />
  </defs>
  <sodipodi:namedview
     id="base"
     pagecolor="#ffffff"
     bordercolor="#666666"
     borderopacity="1.0"
     inkscape:pageopacity="0.0"
     inkscape:pageshadow="2"
     inkscape:zoom="22.197802"
     inkscape:cx="12.698482"
     inkscape:cy="9.8019802"
     inkscape:current-layer="layer1"
     showgrid="true"
     inkscape:grid-bbox="true"
     inkscape:document-units="px"
     inkscape:window-width="2560"
     inkscape:window-height="1378"
     inkscape:window-x="1920"
     inkscape:window-y="0"
     inkscape:window-maximized="1" />
  <metadata
     id="metadata10999">
    <rdf:RDF>
      <cc:Work
         rdf:about="">
        <dc:format>image/svg+xml</dc:format>
        <dc:type
           rdf:resource="http://purl.org/dc/dcmitype/StillImage" />
        <dc:title />
      </cc:Work>
    </rdf:RDF>
  </metadata>
  <g
     id="layer1"
     inkscape:label="Layer 1"
     inkscape:groupmode="layer"
     transform="translate(0,6)">
    <path
       style="opacity:0.8;color:#000000;fill:none;stroke:url(#linearGradient10992);stroke-width:1;stroke-linecap:butt;stroke-linejoin:miter;stroke-miterlimit:4;stroke-opacity:1;stroke-dasharray:none;stroke-dashoffset:0;marker:none;visibility:visible;display:inline;overflow:visible;enable-background:accumulate"
       d="m 2.036,-3.5624971 c -0.277,0 -0.5,0.223 -0.5,0.5 l 0,1.5625 -0.5,0 c -0.277,0 -0.5,0.223 -0.5,0.49999999 l 0,1.76464998 21,0 0,-1.76464998 c 0,-0.27699999 -0.223,-0.49999999 -0.5,-0.49999999 l -11.5000002,0 0,-1.5625 c 0,-0.277 -0.223,-0.5 -0.5,-0.5 z"
       id="rect3186"
       inkscape:connector-curvature="0"
       sodipodi:nodetypes="sscssccsscsss" />
    <path
       inkscape:connector-curvature="0"
       style="color:#000000;fill:url(#linearGradient4414-2);fill-opacity:1;fill-rule:nonzero;stroke:none;stroke-width:1;marker:none;visibility:visible;display:inline;overflow:visible;enable-background:accumulate"
       d="m 2.036,-2.9999971 0,1.99999999 -1,0 0,3.00000001 20,0 0,-3.00000001 -12.0000002,0 0,-1.99999999 z"
       id="rect3409-5-2"
       sodipodi:nodetypes="ccccccccc" />
    <path
       inkscape:connector-curvature="0"
       style="color:#000000;fill:none;stroke:url(#linearGradient4418-4);stroke-width:1;stroke-linecap:round;stroke-linejoin:miter;stroke-miterlimit:4;stroke-opacity:1;stroke-dasharray:none;stroke-dashoffset:0;marker:none;visibility:visible;display:inline;overflow:visible;enable-background:accumulate"
       d="m 2.536,-2.4999971 0,1.99999999 -1,0 0,2.33929001 19,0 0,-2.33929001 -12,0 0,-1.99999999 z"
       id="rect3409-3"
       sodipodi:nodetypes="ccccccccc" />
    <path
       d="m 0.84522,0.50000287 c -0.50041,0.0575 -0.23314,0.65186003 -0.27303,0.98608003 0.0581,0.21599 0.43282,11.3518901 0.43282,11.7342701 0,0.33235 0.16413,0.27604 0.58003,0.27604 6.15466,0 12.96052,0 19.11518,0 0.44803,0.0103 0.35334,0.005 0.35334,-0.28128 0.0327,-0.14639 0.46339,-12.26223013 0.47997,-12.45359013 0,-0.2015 0.0421,-0.26152 -0.22081,-0.26152 -6.57255,0 -13.89494,0 -20.4675,0 z"
       inkscape:connector-curvature="0"
       id="path3388-3"
       style="color:#000000;fill:url(#linearGradient4430-9);fill-opacity:1;fill-rule:nonzero;stroke:none;stroke-width:0.99999988;marker:none;visibility:visible;display:inline;overflow:visible;enable-background:accumulate" />
    <path
       d="M 0.536,2.8851241e-6 21.53601,2.0286512e-4 c 0.30338,0 0.49999,0.21522000488 0.49999,0.48280000488 L 21.5421,13.534033 c 0.007,0.33856 -0.10002,0.4728 -0.45251,0.4657 l -19.98783,-0.008 c -0.30338,0 -0.6093,-0.19981 -0.6093,-0.46739 L 0.036,0.48352287 c 0,-0.26757 0.19662,-0.48299000488 0.5,-0.48299000488 z"
       inkscape:connector-curvature="0"
       id="path6127-36-9"
       style="opacity:0.4;fill:url(#linearGradient4436-4);fill-opacity:1;stroke:none" />
    <path
       style="opacity:0.5;color:#000000;fill:none;stroke:url(#linearGradient4440-9);stroke-width:1.00000012;stroke-linecap:round;stroke-linejoin:miter;stroke-miterlimit:4;stroke-opacity:1;stroke-dasharray:none;stroke-dashoffset:0;marker:none;visibility:visible;display:inline;overflow:visible;enable-background:accumulate"
       d="m 1.536,1.5000029 0.43982,11.0000001 18.12037,0 L 20.536,1.5000029 z"
       id="path3309-8"
       inkscape:connector-curvature="0"
       sodipodi:nodetypes="ccccc" />
    <path
       d="m 0.84522,0.50000293 c -0.50041,0.0575 -0.23314,0.65185997 -0.27303,0.98607997 0.0581,0.21599 0.43282,11.3518901 0.43282,11.7342701 0,0.33235 0.16413,0.27604 0.58003,0.27604 6.15466,0 12.96052,0 19.11518,0 0.44803,0.0103 0.35334,0.005 0.35334,-0.28128 0.0327,-0.14639 0.46339,-12.26223007 0.47997,-12.45359007 0,-0.2015 0.0421,-0.26152 -0.22081,-0.26152 -6.57255,0 -13.89494,0 -20.4675,0 z"
       inkscape:connector-curvature="0"
       id="path3388-3-7"
       style="opacity:0.3;color:#000000;fill:none;stroke:#000000;stroke-width:0.99999988;stroke-linecap:round;stroke-linejoin:round;stroke-miterlimit:4;stroke-opacity:1;stroke-dasharray:none;stroke-dashoffset:0;marker:none;visibility:visible;display:inline;overflow:visible;enable-background:accumulate" />
    <g
       id="g4588"
       transform="matrix(0.22510908,0,0,0.22510908,0.1409014,4.5540251)"
       style="stroke-width:4.44229174">
      <g
         id="g4576"
         transform="matrix(0.02345232,0,0,0.02345232,103.70888,26.25601)"
         style="opacity:0.62699998;fill:#ffffff;fill-opacity:1;stroke:none;stroke-width:189.41804504">
        <path
           transform="translate(0,-48)"
           inkscape:connector-curvature="0"
           id="path4568"
           d="m -3080.2108,-470.48307 c -23.6249,-9.31101 -53.895,-34.43256 -67.5463,-56.05762 -43.9609,-69.63856 -14.9992,-163.61328 61.3341,-199.01637 18.5446,-8.60093 28.7581,-10.58903 54.8701,-10.68073 28.3136,-0.0994 35.2225,1.43234 58.7894,13.03432 29.6162,14.57998 52.9142,38.00108 67.6304,67.9876 7.5535,15.39157 9.2802,25.49439 9.3772,54.86541 0.1041,31.52743 -1.2819,38.85265 -11.1563,58.9611 -24.2716,49.42745 -65.583,76.09959 -120.7248,77.94428 -24.5959,0.82283 -36.7604,-0.80562 -52.5738,-7.03799 z"
           style="opacity:0.85900005;fill:#ffffff;fill-opacity:1;stroke:none;stroke-width:947.090271;stroke-linecap:round;stroke-linejoin:bevel;stroke-miterlimit:4;stroke-dasharray:none;stroke-dashoffset:0;stroke-opacity:0.4" />
        <path
           transform="translate(0,-48)"
           inkscape:connector-curvature="0"
           id="path4570"
           d="m -2815.8295,-1170.0077 c -58.2352,-33.4031 -65.1695,-109.4508 -13.9758,-153.2707 39.3022,-33.6412 89.8944,-30.9828 126.6109,6.6527 32.3838,33.1945 37.946,74.4289 15.2616,113.1397 -25.5467,43.5951 -83.714,58.821 -127.8967,33.4783 z"
           style="opacity:0.85900005;fill:#ffffff;fill-opacity:1;stroke:none;stroke-width:947.090271;stroke-linecap:round;stroke-linejoin:bevel;stroke-miterlimit:4;stroke-dasharray:none;stroke-dashoffset:0;stroke-opacity:0.4" />
        <path
           transform="translate(0,-48)"
           inkscape:connector-curvature="0"
           id="path4572"
           d="m -2593.637,270.88614 c -74.7304,-12.5096 -138.2803,-68.82541 -160.6043,-142.32235 -10.5917,-34.870949 -8.9707,-89.037437 3.7122,-124.0478128 15.1473,-41.8127842 48.2572,-81.1951842 88.8921,-105.7320972 39.2588,-23.70595 103.5905,-32.0714 150.5264,-19.57384 102.8073,27.374375 169.7074,139.075721 143.5172,239.62672 -26.4218,101.44039 -126.4454,168.7217 -226.0436,152.04938 z"
           style="opacity:0.85900005;fill:#ffffff;fill-opacity:1;stroke:none;stroke-width:947.090271;stroke-linecap:round;stroke-linejoin:bevel;stroke-miterlimit:4;stroke-dasharray:none;stroke-dashoffset:0;stroke-opacity:0.4" />
        <path
           transform="translate(0,-48)"
           inkscape:connector-curvature="0"
           id="path4574"
           d="m -2170.8977,-413.63738 -90.6221,-90.71308 136.9414,-137.89136 c 75.3178,-75.84024 152.1816,-153.7422 170.8085,-173.11548 l 33.867,-35.22416 -170.8747,-170.90944 -170.8748,-170.9094 92.0221,-91.9569 92.0221,-91.9568 262.6669,262.6668 262.6668,262.6669 -119.6812,121.89672 c -65.8248,67.0432 -184.625,185.85576 -264.0007,264.02796 l -144.3193,142.13128 z"
           style="opacity:0.85900005;fill:#ffffff;fill-opacity:1;stroke:none;stroke-width:947.090271;stroke-linecap:round;stroke-linejoin:bevel;stroke-miterlimit:4;stroke-dasharray:none;stroke-dashoffset:0;stroke-opacity:0.4" />
      </g>
      <g
         style="fill:#3c7195;fill-opacity:1;stroke:none;stroke-width:189.41804504"
         transform="matrix(0.02345232,0,0,0.02345232,103.48033,24.63469)"
         id="g4558">
        <path
           style="opacity:0.85900005;fill:#3c7195;fill-opacity:1;stroke:none;stroke-width:947.090271;stroke-linecap:round;stroke-linejoin:bevel;stroke-miterlimit:4;stroke-dasharray:none;stroke-dashoffset:0;stroke-opacity:0.4"
           d="m -3080.2108,-470.48307 c -23.6249,-9.31101 -53.895,-34.43256 -67.5463,-56.05762 -43.9609,-69.63856 -14.9992,-163.61328 61.3341,-199.01637 18.5446,-8.60093 28.7581,-10.58903 54.8701,-10.68073 28.3136,-0.0994 35.2225,1.43234 58.7894,13.03432 29.6162,14.57998 52.9142,38.00108 67.6304,67.9876 7.5535,15.39157 9.2802,25.49439 9.3772,54.86541 0.1041,31.52743 -1.2819,38.85265 -11.1563,58.9611 -24.2716,49.42745 -65.583,76.09959 -120.7248,77.94428 -24.5959,0.82283 -36.7604,-0.80562 -52.5738,-7.03799 z"
           id="path4546"
           inkscape:connector-curvature="0"
           transform="translate(0,-48)" />
        <path
           style="opacity:0.85900005;fill:#3c7195;fill-opacity:1;stroke:none;stroke-width:947.090271;stroke-linecap:round;stroke-linejoin:bevel;stroke-miterlimit:4;stroke-dasharray:none;stroke-dashoffset:0;stroke-opacity:0.4"
           d="m -2815.8295,-1170.0077 c -58.2352,-33.4031 -65.1695,-109.4508 -13.9758,-153.2707 39.3022,-33.6412 89.8944,-30.9828 126.6109,6.6527 32.3838,33.1945 37.946,74.4289 15.2616,113.1397 -25.5467,43.5951 -83.714,58.821 -127.8967,33.4783 z"
           id="path4548"
           inkscape:connector-curvature="0"
           transform="translate(0,-48)" />
        <path
           style="opacity:0.85900005;fill:#3c7195;fill-opacity:1;stroke:none;stroke-width:947.090271;stroke-linecap:round;stroke-linejoin:bevel;stroke-miterlimit:4;stroke-dasharray:none;stroke-dashoffset:0;stroke-opacity:0.4"
           d="m -2593.637,270.88614 c -74.7304,-12.5096 -138.2803,-68.82541 -160.6043,-142.32235 -10.5917,-34.870949 -8.9707,-89.037437 3.7122,-124.0478128 15.1473,-41.8127842 48.2572,-81.1951842 88.8921,-105.7320972 39.2588,-23.70595 103.5905,-32.0714 150.5264,-19.57384 102.8073,27.374375 169.7074,139.075721 143.5172,239.62672 -26.4218,101.44039 -126.4454,168.7217 -226.0436,152.04938 z"
           id="path4550"
           inkscape:connector-curvature="0"
           transform="translate(0,-48)" />
        <path
           style="opacity:0.85900005;fill:#3c7195;fill-opacity:1;stroke:none;stroke-width:947.090271;stroke-linecap:round;stroke-linejoin:bevel;stroke-miterlimit:4;stroke-dasharray:none;stroke-dashoffset:0;stroke-opacity:0.4"
           d="m -2170.8977,-413.63738 -90.6221,-90.71308 136.9414,-137.89136 c 75.3178,-75.84024 152.1816,-153.7422 170.8085,-173.11548 l 33.867,-35.22416 -170.8747,-170.90944 -170.8748,-170.9094 92.0221,-91.9569 92.0221,-91.9568 262.6669,262.6668 262.6668,262.6669 -119.6812,121.89672 c -65.8248,67.0432 -184.625,185.85576 -264.0007,264.02796 l -144.3193,142.13128 z"
           id="path4552"
           inkscape:connector-curvature="0"
           transform="translate(0,-48)" />
      </g>
    </g>
  </g>
</svg>
