<?xml version="1.0" encoding="UTF-8" standalone="no"?>
<svg
   xmlns:dc="http://purl.org/dc/elements/1.1/"
   xmlns:cc="http://creativecommons.org/ns#"
   xmlns:rdf="http://www.w3.org/1999/02/22-rdf-syntax-ns#"
   xmlns:svg="http://www.w3.org/2000/svg"
   xmlns="http://www.w3.org/2000/svg"
   xmlns:sodipodi="http://sodipodi.sourceforge.net/DTD/sodipodi-0.dtd"
   xmlns:inkscape="http://www.inkscape.org/namespaces/inkscape"
   width="16"
   height="16"
   version="1.1"
   viewBox="0 0 16 16"
   id="svg8"
   sodipodi:docname="package-x-generic.svg"
   inkscape:version="0.92.1 r15371">
  <metadata
     id="metadata14">
    <rdf:RDF>
      <cc:Work
         rdf:about="">
        <dc:format>image/svg+xml</dc:format>
        <dc:type
           rdf:resource="http://purl.org/dc/dcmitype/StillImage" />
        <dc:title />
      </cc:Work>
    </rdf:RDF>
  </metadata>
  <defs
     id="defs12" />
  <sodipodi:namedview
     pagecolor="#ffffff"
     bordercolor="#666666"
     borderopacity="1"
     objecttolerance="10"
     gridtolerance="10"
     guidetolerance="10"
     inkscape:pageopacity="0"
     inkscape:pageshadow="2"
     inkscape:window-width="1668"
     inkscape:window-height="829"
     id="namedview10"
     showgrid="false"
     inkscape:zoom="14.75"
     inkscape:cx="8.569845"
     inkscape:cy="10.232473"
     inkscape:window-x="2257"
     inkscape:window-y="338"
     inkscape:window-maximized="0"
     inkscape:current-layer="svg8" />
  <path
     d="m 2.5989908,0.56854505 c -0.4292002,0 -0.7715728,0.34237256 -0.7715728,0.77157275 V 15.228428 c 0,0.428994 0.3423726,0.771573 0.7715728,0.771573 H 13.40101 c 0.430023,0 0.771572,-0.34155 0.771572,-0.771573 V 5.7123636 L 9.9289319,4.8121953 9.0287639,0.56854505 Z"
     id="path2"
     style="fill:#f1c65d;fill-opacity:1;stroke-width:1"
     inkscape:connector-curvature="0" />
  <path
     style="opacity:0.2;fill:#ffffff"
     d="m -18.987288,-13.067647 c -0.6925,0 -1.25,0.5575 -1.25,1.25 v 1 c 0,-0.6925 0.5575,-1.25 1.25,-1.25 h 10.7499999 v -1 z"
     id="path14"
     inkscape:connector-curvature="0"
     sodipodi:nodetypes="sscsccs" />
  <path
     style="opacity:0.85900005;fill:#c39b6b;fill-opacity:1;stroke:none;stroke-width:5;stroke-linecap:round;stroke-linejoin:bevel;stroke-miterlimit:4;stroke-dasharray:none;stroke-dashoffset:0;stroke-opacity:1"
     d="M 5.515625 0.56835938 L 5.515625 4.6953125 C 5.4393041 6.3526312 5.5262316 6.2695312 7.0839844 6.2695312 L 7.0839844 0.56835938 L 5.515625 0.56835938 z "
     id="path4575" />
  <path
     style="opacity:0.85900005;fill:#d2cbc0;fill-opacity:1;stroke:none;stroke-width:5;stroke-linecap:round;stroke-linejoin:bevel;stroke-miterlimit:4;stroke-dasharray:none;stroke-dashoffset:0;stroke-opacity:1"
     d="M 7.0839844 0.56835938 L 7.0839844 6.2695312 C 8.6417372 6.2695312 8.7306178 6.3526312 8.6542969 4.6953125 L 8.6542969 0.56835938 L 7.0839844 0.56835938 z "
     id="rect4572" />
  <path
     style="opacity:1;fill:#7b7b7b;fill-opacity:1;stroke:none;stroke-width:5;stroke-linecap:round;stroke-linejoin:bevel;stroke-miterlimit:4;stroke-dasharray:none;stroke-dashoffset:0;stroke-opacity:1"
     d="M 5.2851562 0.56835938 L 5.2851562 5.1914062 C 5.2851562 6.1828607 6.0827651 6.9785156 7.0742188 6.9785156 C 8.065674 6.9785156 8.8632813 6.1828607 8.8632812 5.1914062 L 8.8632812 0.56835938 L 5.2851562 0.56835938 z M 6.1601562 1.2617188 L 7.9882812 1.2617188 L 7.9882812 2.1757812 L 6.1601562 2.1757812 L 6.1601562 1.2617188 z M 6.1601562 3.0546875 L 7.9882812 3.0546875 L 7.9882812 3.96875 L 6.1601562 3.96875 L 6.1601562 3.0546875 z M 6.1601562 4.8457031 L 7.9882812 4.8457031 L 7.9882812 4.9902344 C 7.9882812 5.4966431 7.5806275 5.9042969 7.0742188 5.9042969 C 6.56781 5.9042969 6.1601562 5.4966431 6.1601562 4.9902344 L 6.1601562 4.8457031 z "
     id="path4522" />
  <g
     id="g4593"
     transform="matrix(1.0175594,0,0,1.0175594,-11.615309,-11.103654)"
     style="stroke-width:0.98274356">
    <path
       inkscape:connector-curvature="0"
       id="rect4510"
       d="m 18.36814,16.763472 c -1.185637,0 -2.141291,0.953637 -2.141291,2.139274 v 4.534618 c 0,1.185637 0.955654,2.139275 2.141291,2.139275 1.185637,0 2.139275,-0.953638 2.139275,-2.139275 v -4.534618 c 0,-1.185637 -0.953638,-2.139274 -2.139275,-2.139274 z m 0,0.985962 a 1.0394246,1.0630567 0 0 1 1.038385,1.06258 1.0394246,1.0630567 0 0 1 -1.038385,1.06258 1.0394246,1.0630567 0 0 1 -1.040401,-1.06258 1.0394246,1.0630567 0 0 1 1.040401,-1.06258 z m 0,3.451874 c 0.605591,0 1.092824,0.487232 1.092824,1.092824 v 0.903295 c 0,0.605591 -0.487233,1.092824 -1.092824,1.092824 -0.605592,0 -1.094841,-0.487233 -1.094841,-1.092824 v -0.903295 c 0,-0.605592 0.489249,-1.092824 1.094841,-1.092824 z"
       style="opacity:1;fill:#999999;fill-opacity:1;stroke:none;stroke-width:4.9137187;stroke-linecap:round;stroke-linejoin:bevel;stroke-miterlimit:4;stroke-dasharray:none;stroke-dashoffset:0;stroke-opacity:1" />
    <path
       style="opacity:1;fill:#666666;fill-opacity:1;stroke:none;stroke-width:4.9137187;stroke-linecap:round;stroke-linejoin:bevel;stroke-miterlimit:4;stroke-dasharray:none;stroke-dashoffset:0;stroke-opacity:1"
       d="m 18.36814,16.101101 c -1.185637,0 -2.141291,0.953637 -2.141291,2.139274 v 4.534618 c 0,1.185637 0.955654,2.139275 2.141291,2.139275 1.185637,0 2.139275,-0.953638 2.139275,-2.139275 v -4.534618 c 0,-1.185637 -0.953638,-2.139274 -2.139275,-2.139274 z m 0,0.985962 a 1.0394246,1.0630567 0 0 1 1.038385,1.06258 1.0394246,1.0630567 0 0 1 -1.038385,1.06258 1.0394246,1.0630567 0 0 1 -1.040401,-1.06258 1.0394246,1.0630567 0 0 1 1.040401,-1.06258 z m 0,3.451874 c 0.605591,0 1.092824,0.487232 1.092824,1.092824 v 0.903295 c 0,0.605591 -0.487233,1.092824 -1.092824,1.092824 -0.605592,0 -1.094841,-0.487233 -1.094841,-1.092824 v -0.903295 c 0,-0.605592 0.489249,-1.092824 1.094841,-1.092824 z"
       id="path4587"
       inkscape:connector-curvature="0" />
  </g>
  <path
     d="M 9.0287639,0.56854505 V 4.8550948 c 0,0.4715852 0.3856835,0.8572688 0.857269,0.8572688 h 4.2865491 z"
     id="path4"
     style="fill:#ed8b13;fill-opacity:1;stroke-width:1"
     inkscape:connector-curvature="0" />
</svg>
