<?xml version="1.0" encoding="UTF-8" standalone="no"?>
<svg
   xmlns:dc="http://purl.org/dc/elements/1.1/"
   xmlns:cc="http://creativecommons.org/ns#"
   xmlns:rdf="http://www.w3.org/1999/02/22-rdf-syntax-ns#"
   xmlns:svg="http://www.w3.org/2000/svg"
   xmlns="http://www.w3.org/2000/svg"
   xmlns:xlink="http://www.w3.org/1999/xlink"
   xmlns:sodipodi="http://sodipodi.sourceforge.net/DTD/sodipodi-0.dtd"
   xmlns:inkscape="http://www.inkscape.org/namespaces/inkscape"
   version="1.1"
   width="128"
   height="128"
   id="svg3971"
   sodipodi:docname="audio-x-generic.svg"
   inkscape:version="0.92.1 r15371">
  <sodipodi:namedview
     pagecolor="#ffffff"
     bordercolor="#666666"
     borderopacity="1"
     objecttolerance="10"
     gridtolerance="10"
     guidetolerance="10"
     inkscape:pageopacity="0"
     inkscape:pageshadow="2"
     inkscape:window-width="1920"
     inkscape:window-height="1144"
     id="namedview49"
     showgrid="false"
     inkscape:zoom="2.6074563"
     inkscape:cx="15.597087"
     inkscape:cy="2.9216913"
     inkscape:window-x="0"
     inkscape:window-y="0"
     inkscape:window-maximized="1"
     inkscape:current-layer="svg3971" />
  <defs
     id="defs3973">
    <linearGradient
       x1="16.626165"
       y1="15.298182"
       x2="20.054544"
       y2="24.627615"
       id="linearGradient3164"
       xlink:href="#linearGradient8265-821-176-38-919-66-249-7-7"
       gradientUnits="userSpaceOnUse"
       gradientTransform="matrix(2.2144204,0,0,3.4699564,10.750311,-3.821122)" />
    <linearGradient
       id="linearGradient8265-821-176-38-919-66-249-7-7">
      <stop
         id="stop2687-1-9"
         style="stop-color:#ffffff;stop-opacity:1"
         offset="0" />
      <stop
         id="stop2689-5-4"
         style="stop-color:#ffffff;stop-opacity:0"
         offset="1" />
    </linearGradient>
    <linearGradient
       x1="23.99999"
       y1="5.6575165"
       x2="23.99999"
       y2="42.32058"
       id="linearGradient3167"
       xlink:href="#linearGradient3924"
       gradientUnits="userSpaceOnUse"
       gradientTransform="matrix(2.7297298,0,0,2.7297298,-1.5135114,1.486515)" />
    <linearGradient
       id="linearGradient3924">
      <stop
         id="stop3926"
         style="stop-color:#ffffff;stop-opacity:1"
         offset="0" />
      <stop
         id="stop3928"
         style="stop-color:#ffffff;stop-opacity:0.23529412"
         offset="0.00293467" />
      <stop
         id="stop3930"
         style="stop-color:#ffffff;stop-opacity:0.15686275"
         offset="0.99483037" />
      <stop
         id="stop3932"
         style="stop-color:#ffffff;stop-opacity:0.39215687"
         offset="1" />
    </linearGradient>
    <linearGradient
       x1="-51.786404"
       y1="50.786446"
       x2="-51.786404"
       y2="2.9062471"
       id="linearGradient3095-1-9"
       xlink:href="#linearGradient3104-6-2-3"
       gradientUnits="userSpaceOnUse"
       gradientTransform="matrix(2.0306977,0,0,2.2467814,153.04984,3.022214)" />
    <linearGradient
       id="linearGradient3104-6-2-3">
      <stop
         id="stop3106-3-4-0"
         style="stop-color:#000000;stop-opacity:0.31782946"
         offset="0" />
      <stop
         id="stop3108-9-9-2"
         style="stop-color:#000000;stop-opacity:0.24031007"
         offset="1" />
    </linearGradient>
    <linearGradient
       x1="25.132275"
       y1="0.98520643"
       x2="25.132275"
       y2="47.013336"
       id="linearGradient3101-2"
       xlink:href="#linearGradient3600-9-9"
       gradientUnits="userSpaceOnUse"
       gradientTransform="matrix(2.4373971,0,0,2.3371711,5.5024661,7.322078)" />
    <linearGradient
       id="linearGradient3600-9-9">
      <stop
         id="stop3602-3-7"
         style="stop-color:#f4f4f4;stop-opacity:1"
         offset="0" />
      <stop
         id="stop3604-7-3"
         style="stop-color:#dbdbdb;stop-opacity:1"
         offset="1" />
    </linearGradient>
    <radialGradient
       cx="4.9929786"
       cy="43.5"
       r="2.5"
       fx="4.9929786"
       fy="43.5"
       id="radialGradient2455"
       xlink:href="#linearGradient3688-166-749"
       gradientUnits="userSpaceOnUse"
       gradientTransform="matrix(2.003784,0,0,1.4,27.98813,-17.4)" />
    <linearGradient
       id="linearGradient3688-166-749">
      <stop
         id="stop2883"
         style="stop-color:#181818;stop-opacity:1"
         offset="0" />
      <stop
         id="stop2885"
         style="stop-color:#181818;stop-opacity:0"
         offset="1" />
    </linearGradient>
    <radialGradient
       cx="4.9929786"
       cy="43.5"
       r="2.5"
       fx="4.9929786"
       fy="43.5"
       id="radialGradient2457"
       xlink:href="#linearGradient3688-464-309"
       gradientUnits="userSpaceOnUse"
       gradientTransform="matrix(2.003784,0,0,1.4,-20.01187,-104.4)" />
    <linearGradient
       id="linearGradient3688-464-309">
      <stop
         id="stop2889"
         style="stop-color:#181818;stop-opacity:1"
         offset="0" />
      <stop
         id="stop2891"
         style="stop-color:#181818;stop-opacity:0"
         offset="1" />
    </linearGradient>
    <linearGradient
       x1="25.058096"
       y1="47.027729"
       x2="25.058096"
       y2="39.999443"
       id="linearGradient2459"
       xlink:href="#linearGradient3702-501-757"
       gradientUnits="userSpaceOnUse" />
    <linearGradient
       id="linearGradient3702-501-757">
      <stop
         id="stop2895"
         style="stop-color:#181818;stop-opacity:0"
         offset="0" />
      <stop
         id="stop2897"
         style="stop-color:#181818;stop-opacity:1"
         offset="0.5" />
      <stop
         id="stop2899"
         style="stop-color:#181818;stop-opacity:0"
         offset="1" />
    </linearGradient>
    <linearGradient
       inkscape:collect="always"
       xlink:href="#linearGradient4607"
       id="linearGradient4739"
       x1="67.604355"
       y1="-5.2166991"
       x2="91.959938"
       y2="-12.339778"
       gradientUnits="userSpaceOnUse"
       gradientTransform="matrix(0.95592985,0,0,0.95592985,-8.9737038,-16.067199)" />
    <linearGradient
       inkscape:collect="always"
       id="linearGradient4607">
      <stop
         style="stop-color:#0c81b2;stop-opacity:1"
         offset="0"
         id="stop4603" />
      <stop
         style="stop-color:#11a4db;stop-opacity:1"
         offset="1"
         id="stop4605" />
    </linearGradient>
  </defs>
  <metadata
     id="metadata3976">
    <rdf:RDF>
      <cc:Work
         rdf:about="">
        <dc:format>image/svg+xml</dc:format>
        <dc:type
           rdf:resource="http://purl.org/dc/dcmitype/StillImage" />
        <dc:title />
      </cc:Work>
    </rdf:RDF>
  </metadata>
  <g
     style="display:inline"
     id="g2036"
     transform="matrix(2.9499988,0,0,1.2222234,-6.8000012,65.555538)">
    <g
       style="opacity:0.4"
       id="g3712"
       transform="matrix(1.052632,0,0,1.285713,-1.263158,-13.42854)">
      <rect
         style="fill:url(#radialGradient2455);fill-opacity:1;stroke:none"
         id="rect2801"
         y="40"
         x="38"
         height="7"
         width="5" />
      <rect
         style="fill:url(#radialGradient2457);fill-opacity:1;stroke:none"
         id="rect3696"
         transform="scale(-1)"
         y="-47"
         x="-10"
         height="7"
         width="5" />
      <rect
         style="fill:url(#linearGradient2459);fill-opacity:1;stroke:none"
         id="rect3700"
         y="40"
         x="10"
         height="7.0000005"
         width="28" />
    </g>
  </g>
  <rect
     style="color:#000000;display:inline;overflow:visible;visibility:visible;fill:url(#linearGradient3101-2);fill-opacity:1;fill-rule:nonzero;stroke:none;stroke-width:0.99999994;marker:none;enable-background:accumulate"
     id="rect5505-21-8-4"
     y="16"
     x="13"
     height="102"
     width="102" />
  <g
     transform="matrix(1.931035,0,0,1.9981791,-59.222552,115.51563)"
     style="stroke-width:0.50908196"
     id="g4531">
    <path
       transform="matrix(0,1.4860189,-1.4958412,0,17.405835,20.499248)"
       d="m -20.896752,-23.28157 -18.034919,0 9.01746,-15.618698 z"
       inkscape:randomized="0"
       inkscape:rounded="0"
       inkscape:flatsided="true"
       sodipodi:arg2="1.5707963"
       sodipodi:arg1="0.52359878"
       sodipodi:r2="9.0174589"
       sodipodi:r1="10.412465"
       sodipodi:cy="-28.487803"
       sodipodi:cx="-29.914211"
       sodipodi:sides="3"
       id="path4699"
       style="opacity:1;fill:none;fill-opacity:1;stroke:#cccccc;stroke-width:1.46825421;stroke-linecap:butt;stroke-linejoin:round;stroke-miterlimit:4;stroke-dasharray:none;stroke-dashoffset:0;stroke-opacity:1;paint-order:stroke fill markers"
       sodipodi:type="star" />
    <path
       style="opacity:1;fill:#2d2d2d;fill-opacity:1;stroke:none;stroke-width:0.71271473;stroke-linecap:butt;stroke-linejoin:round;stroke-miterlimit:4;stroke-dasharray:none;stroke-dashoffset:0;stroke-opacity:1;paint-order:stroke fill markers"
       d="m 53.164612,-9.5599823 c -0.558038,-0.1558635 -1.120917,-0.8247537 -1.212282,-1.4405767 -0.04165,-0.280698 -0.05926,-6.378877 -0.03916,-13.551509 0.03633,-12.958556 0.03815,-13.043222 0.290812,-13.369469 0.433431,-0.559693 0.864913,-0.798992 1.436661,-0.796759 0.476557,0.0019 1.662488,0.651504 11.997536,6.572156 6.307789,3.613548 11.571501,6.657947 11.697138,6.765331 0.755527,0.645751 0.755527,1.889185 0,2.530587 -0.303497,0.257649 -22.408857,12.9185315 -23.042525,13.1976412 -0.550585,0.2425263 -0.582182,0.2451064 -1.128175,0.092575 z"
       id="path4743"
       inkscape:connector-curvature="0" />
    <path
       inkscape:connector-curvature="0"
       id="path4731"
       d="m 53.675775,-11.274397 c -0.532605,-0.14876 -1.069831,-0.787169 -1.157031,-1.374924 -0.03975,-0.267907 -0.05655,-6.088165 -0.03737,-12.933909 0.03468,-12.367982 0.03641,-12.448789 0.277558,-12.760168 0.413678,-0.534187 0.825498,-0.762579 1.371188,-0.760448 0.454836,0.0018 1.586719,0.621812 11.450757,6.272635 6.020314,3.448865 11.04414,6.35452 11.164053,6.457009 0.721095,0.616319 0.721095,1.803086 0,2.415255 -0.289663,0.245908 -21.387597,12.329782 -21.992384,12.596172 -0.525492,0.231471 -0.55565,0.233934 -1.076761,0.08837 z"
       style="opacity:1;fill:url(#linearGradient4739);fill-opacity:1.0;stroke:none;stroke-width:0.71271473;stroke-linecap:butt;stroke-linejoin:round;stroke-miterlimit:4;stroke-dasharray:none;stroke-dashoffset:0;stroke-opacity:1;paint-order:stroke fill markers" />
  </g>
  <rect
     style="color:#000000;display:inline;overflow:visible;visibility:visible;fill:none;stroke:url(#linearGradient3095-1-9);stroke-width:0.9999218;stroke-linecap:butt;stroke-linejoin:round;stroke-miterlimit:4;stroke-dasharray:none;stroke-dashoffset:0;stroke-opacity:1;marker:none;enable-background:accumulate"
     id="rect5505-21"
     y="15.5"
     x="12.5"
     height="103"
     width="103" />
  <rect
     style="fill:none;stroke:url(#linearGradient3167);stroke-width:1;stroke-linecap:round;stroke-linejoin:miter;stroke-miterlimit:4;stroke-dasharray:none;stroke-dashoffset:0;stroke-opacity:1"
     id="rect6741-7"
     y="16.5"
     x="13.5"
     height="101"
     width="101" />
  <path
     inkscape:connector-curvature="0"
     style="opacity:0.4;fill:url(#linearGradient3164);fill-opacity:1;fill-rule:evenodd;stroke:none"
     id="path3333"
     d="m 13,16.000001 0.03394,64 C 15.968234,79.935552 112.7728,56.408247 115,55.276558 V 16.000001 Z" />
  <path
     inkscape:connector-curvature="0"
     style="fill:none;stroke:none"
     id="path3982-9"
     d="m 67.46875,26.375001 c -1.346474,0 -1.869098,0.376285 -2.15625,0.96875 -0.287152,0.592465 -0.28125,1.506966 -0.28125,2.46875 L 65,84.281251 a 0.37521267,0.37521267 0 0 1 -0.09375,0.25 c -0.217233,0.225998 -0.522926,0.348457 -0.78125,0.34375 -0.258324,-0.0047 -0.481731,-0.08132 -0.6875,-0.15625 -0.411537,-0.149864 -0.737268,-0.288539 -0.9375,-0.21875 a 0.37521267,0.37521267 0 0 1 -0.15625,0.03125 c -8.139139,-0.494041 -17.065023,5.40125 -17.875,13.84375 a 0.37521267,0.37521267 0 0 1 0,0.03125 c -0.470696,3.309589 1.053707,6.319269 3.5,8.406249 2.446293,2.08698 5.797465,3.20361 8.9375,2.6875 a 0.37521267,0.37521267 0 0 1 0.03125,0 c 8.004553,-0.84684 13.982654,-8.92232 12.9375,-16.874999 a 0.37521267,0.37521267 0 0 1 0,-0.0625 C 69.89822,78.183148 69.82497,63.779586 69.90625,49.406251 A 0.37521267,0.37521267 0 0 1 70,49.156251 c 0.225788,-0.257501 0.594326,-0.335442 0.875,-0.28125 0.280674,0.05419 0.517639,0.20085 0.75,0.34375 0.232361,0.1429 0.438145,0.288574 0.625,0.40625 0.186855,0.117676 0.354135,0.185141 0.375,0.1875 a 0.37521267,0.37521267 0 0 1 0.15625,0.0625 c 6.69292,3.943272 12.65864,10.441878 13.0625,18.625 0.379204,5.460852 -1.022455,10.792207 -2.78125,15.875 5.842631,-8.549713 7.472963,-20.050716 2.9375,-29.5 -2.492785,-5.894808 -8.220934,-9.605371 -11.5,-15.3125 -2.380965,-3.74992 -4.192388,-7.921864 -4.78125,-12.375 -0.0073,-0.01444 -0.02348,-0.01731 -0.03125,-0.03125 -0.179896,-0.322842 -0.476719,-0.504815 -0.875,-0.625 -0.415473,-0.125373 -0.908261,-0.161011 -1.34375,-0.15625 z" />
</svg>
